<?xml version="1.0" encoding="UTF-8" standalone="no"?>
<!-- Created with Inkscape (http://www.inkscape.org/) -->

<svg
   xmlns:dc="http://purl.org/dc/elements/1.1/"
   xmlns:cc="http://creativecommons.org/ns#"
   xmlns:rdf="http://www.w3.org/1999/02/22-rdf-syntax-ns#"
   xmlns:svg="http://www.w3.org/2000/svg"
   xmlns="http://www.w3.org/2000/svg"
   xmlns:xlink="http://www.w3.org/1999/xlink"
   xmlns:sodipodi="http://sodipodi.sourceforge.net/DTD/sodipodi-0.dtd"
   xmlns:inkscape="http://www.inkscape.org/namespaces/inkscape"
   id="svg10"
   version="1.1"
   viewBox="0 0 1000 1000"
   height="1000px"
   width="1000px"
   enable-background="new"
   inkscape:export-filename="J:\ROOT\GitHub\ANXMiuiCamera10\src\ANXCameraIcons\V15.png"
   inkscape:export-xdpi="96"
   inkscape:export-ydpi="96"
   inkscape:version="0.92.2 (5c3e80d, 2017-08-06)"
   sodipodi:docname="ANXHomePod.svg">
  <sodipodi:namedview
     inkscape:window-maximized="1"
     inkscape:window-y="-9"
     inkscape:window-x="-9"
     inkscape:window-height="1013"
     inkscape:window-width="1920"
     showgrid="true"
     inkscape:current-layer="layer5"
     inkscape:document-units="px"
     inkscape:cy="528.21457"
     inkscape:cx="631.88964"
     inkscape:zoom="0.64036281"
     inkscape:pageshadow="2"
     inkscape:pageopacity="0.0"
     borderopacity="1.0"
     bordercolor="#666666"
     pagecolor="#ffffff"
     id="base">
    <inkscape:grid
       type="xygrid"
       id="fine"
       originx="500"
       originy="500"
       empspacing="10"
       color="#60ff3f"
       opacity="0.1254902" />
    <inkscape:grid
       type="xygrid"
       id="coarse"
       originx="500"
       originy="500"
       empspacing="100"
       spacingx="50"
       spacingy="50"
       color="#ffff3f"
       opacity="0.1254902"
       empcolor="#ff3fc5"
       empopacity="0.25098039" />
  </sodipodi:namedview>
  <defs
     id="defs2">
    <linearGradient
       inkscape:collect="always"
       id="linearGradient10313">
      <stop
         style="stop-color:#7c7c7c;stop-opacity:1"
         offset="0"
         id="stop10309" />
      <stop
         style="stop-color:#ffffff;stop-opacity:1"
         offset="1"
         id="stop10311" />
    </linearGradient>
    <linearGradient
       inkscape:collect="always"
       id="linearGradient10009">
      <stop
         style="stop-color:#ffffff;stop-opacity:1"
         offset="0"
         id="stop10005" />
      <stop
         style="stop-color:#ffffff;stop-opacity:0.027"
         offset="1"
         id="stop10007" />
    </linearGradient>
    <linearGradient
       inkscape:collect="always"
       id="linearGradient8836">
      <stop
         style="stop-color:#2b2dfe;stop-opacity:1"
         offset="0"
         id="stop8832" />
      <stop
         style="stop-color:#454545;stop-opacity:0"
         offset="1"
         id="stop8834" />
    </linearGradient>
    <linearGradient
       inkscape:collect="always"
       id="linearGradient8830">
      <stop
         style="stop-color:#e900db;stop-opacity:1"
         offset="0"
         id="stop8826" />
      <stop
         style="stop-color:#000000;stop-opacity:0"
         offset="1"
         id="stop8828" />
    </linearGradient>
    <linearGradient
       id="linearGradient8169"
       inkscape:collect="always">
      <stop
         id="stop8165"
         offset="0"
         style="stop-color:#00f8f0;stop-opacity:1" />
      <stop
         id="stop8167"
         offset="1"
         style="stop-color:#ffffff;stop-opacity:0" />
    </linearGradient>
    <linearGradient
       id="linearGradient7416"
       inkscape:collect="always">
      <stop
         id="stop7412"
         offset="0"
         style="stop-color:#ffffff;stop-opacity:1" />
      <stop
         id="stop7414"
         offset="1"
         style="stop-color:#070707;stop-opacity:0.98431373" />
    </linearGradient>
    <linearGradient
       inkscape:collect="always"
       id="linearGradient7400">
      <stop
         style="stop-color:#222222;stop-opacity:1"
         offset="0"
         id="stop7396" />
      <stop
         style="stop-color:#000000;stop-opacity:0.96862745"
         offset="1"
         id="stop7398" />
    </linearGradient>
    <linearGradient
       inkscape:collect="always"
       id="linearGradient7384">
      <stop
         style="stop-color:#fefefe;stop-opacity:1"
         offset="0"
         id="stop7380" />
      <stop
         style="stop-color:#000000;stop-opacity:0.98626375"
         offset="1"
         id="stop7382" />
    </linearGradient>
    <linearGradient
       inkscape:collect="always"
       id="linearGradient7376">
      <stop
         style="stop-color:#ffffff;stop-opacity:1"
         offset="0"
         id="stop7372" />
      <stop
         style="stop-color:#070707;stop-opacity:0"
         offset="1"
         id="stop7374" />
    </linearGradient>
    <linearGradient
       inkscape:collect="always"
       id="linearGradient7368">
      <stop
         style="stop-color:#fefefe;stop-opacity:1"
         offset="0"
         id="stop7364" />
      <stop
         style="stop-color:#000000;stop-opacity:0"
         offset="1"
         id="stop7366" />
    </linearGradient>
    <radialGradient
       inkscape:collect="always"
       xlink:href="#linearGradient7368"
       id="radialGradient7370"
       cx="253.35704"
       cy="588.23529"
       fx="253.35704"
       fy="588.23529"
       r="300.00001"
       gradientUnits="userSpaceOnUse"
       gradientTransform="matrix(0.13729908,-0.08737203,0.08895604,0.13978805,302.32984,500.90644)" />
    <radialGradient
       inkscape:collect="always"
       xlink:href="#linearGradient7376"
       id="radialGradient7378"
       cx="791.80334"
       cy="768.94739"
       fx="791.80334"
       fy="768.94739"
       r="300.00001"
       gradientUnits="userSpaceOnUse"
       gradientTransform="matrix(-0.01270802,-0.17791204,0.19055771,-0.01361121,447.40847,746.64764)" />
    <radialGradient
       inkscape:collect="always"
       xlink:href="#linearGradient7384"
       id="radialGradient7386"
       cx="510"
       cy="150"
       fx="510"
       fy="150"
       r="300.00001"
       gradientUnits="userSpaceOnUse"
       gradientTransform="matrix(-0.11437204,0.11437202,-0.11507619,-0.11507554,579.40582,325.49752)" />
    <radialGradient
       inkscape:collect="always"
       xlink:href="#linearGradient7400"
       id="radialGradient7402"
       cx="461.92923"
       cy="311.81061"
       fx="461.92923"
       fy="311.81061"
       r="287.8535"
       gradientTransform="matrix(-0.4503042,0.41057151,-0.41662915,-0.45696157,841.73271,330.8336)"
       gradientUnits="userSpaceOnUse" />
    <radialGradient
       inkscape:collect="always"
       xlink:href="#linearGradient7416"
       id="radialGradient7410"
       cx="500"
       cy="500.00006"
       fx="500"
       fy="500.00006"
       r="450.00204"
       gradientTransform="matrix(0.42359822,0.42359822,-0.26957762,0.26957731,422.99197,153.41219)"
       gradientUnits="userSpaceOnUse" />
    <linearGradient
       inkscape:collect="always"
       xlink:href="#linearGradient8169"
       id="linearGradient8163"
       x1="536.68732"
       y1="454.47885"
       x2="450"
       y2="550"
       gradientUnits="userSpaceOnUse"
       gradientTransform="matrix(0.98453844,0,0,0.98453847,8.310625,7.7862568)" />
    <linearGradient
       inkscape:collect="always"
       xlink:href="#linearGradient8836"
       id="linearGradient8163-6"
       x1="530.53711"
       y1="550.91357"
       x2="489.32422"
       y2="499.80777"
       gradientUnits="userSpaceOnUse"
       gradientTransform="matrix(0.9705694,0,0,0.97836214,15.076891,11.00699)" />
    <linearGradient
       inkscape:collect="always"
       xlink:href="#linearGradient8830"
       id="linearGradient8163-5"
       x1="439.40887"
       y1="509.82962"
       x2="530.10828"
       y2="509.82962"
       gradientUnits="userSpaceOnUse"
       gradientTransform="matrix(0.99228858,0,0,0.98838454,3.979595,6.0922715)" />
    <filter
       inkscape:collect="always"
       style="color-interpolation-filters:sRGB"
       id="filter9124"
       x="-0.18084355"
       width="1.3616871"
       y="-0.18155786"
       height="1.3631157">
      <feGaussianBlur
         inkscape:collect="always"
         stdDeviation="7.4770411"
         id="feGaussianBlur9126" />
    </filter>
    <filter
       inkscape:collect="always"
       style="color-interpolation-filters:sRGB"
       id="filter9136"
       x="-0.19156597"
       width="1.3831319"
       y="-0.19004013"
       height="1.3800803">
      <feGaussianBlur
         inkscape:collect="always"
         stdDeviation="7.7470027"
         id="feGaussianBlur9138" />
    </filter>
    <filter
       inkscape:collect="always"
       style="color-interpolation-filters:sRGB"
       id="filter9905"
       x="-0.18"
       width="1.36"
       y="-0.18"
       height="1.36">
      <feGaussianBlur
         inkscape:collect="always"
         stdDeviation="7.3840387"
         id="feGaussianBlur9907" />
    </filter>
    <radialGradient
       inkscape:collect="always"
       xlink:href="#linearGradient10009"
       id="radialGradient10003"
       cx="242.02136"
       cy="516.83911"
       fx="242.02136"
       fy="516.83911"
       r="66.948619"
       gradientUnits="userSpaceOnUse"
       gradientTransform="matrix(0.59747348,0.59747296,-0.70710766,0.7071059,720.85952,-10.061193)" />
    <filter
       inkscape:collect="always"
       style="color-interpolation-filters:sRGB"
       id="filter10271"
       x="-0.1896"
       width="1.3792"
       y="-0.1896"
       height="1.3792">
      <feGaussianBlur
         inkscape:collect="always"
         stdDeviation="7.7778541"
         id="feGaussianBlur10273" />
    </filter>
    <linearGradient
       inkscape:collect="always"
       xlink:href="#linearGradient10313"
       id="linearGradient10315"
       x1="447.5"
       y1="499.99999"
       x2="1462.5"
       y2="499.99999"
       gradientUnits="userSpaceOnUse"
       gradientTransform="translate(207.18223,-499.81786)" />
  </defs>
  <metadata
     id="metadata7">
    <rdf:RDF>
      <cc:Work
         rdf:about="">
        <dc:format>image/svg+xml</dc:format>
        <dc:type
           rdf:resource="http://purl.org/dc/dcmitype/StillImage" />
        <dc:title></dc:title>
      </cc:Work>
    </rdf:RDF>
  </metadata>
  <g
     inkscape:groupmode="layer"
     id="layer5"
     inkscape:label="Layer 5">
    <rect
       style="opacity:1;fill:#d9d9d9;fill-opacity:1;stroke:none;stroke-width:2;stroke-linecap:round;stroke-linejoin:round;stroke-miterlimit:4;stroke-dasharray:none;stroke-opacity:1;paint-order:normal"
       id="rect10327"
       width="1050"
       height="1000"
       x="0"
       y="0" />
  </g>
  <g
     inkscape:groupmode="layer"
     id="layer3"
     inkscape:label="Layer 3"
     style="display:inline">
    <rect
       style="display:inline;opacity:1;fill:url(#linearGradient10315);fill-opacity:1;stroke:none;stroke-width:3.85449648;stroke-linecap:round;stroke-linejoin:round;stroke-miterlimit:4;stroke-dasharray:none;stroke-opacity:1;paint-order:normal"
       id="rect10276"
       width="910"
       height="340"
       x="707.18225"
       y="-169.81786"
       inkscape:transform-center-x="-321.91575"
       transform="rotate(45)"
       inkscape:transform-center-y="321.91575" />
  </g>
  <path
     id="path7114"
     d="m 520,499.99995 c 0,-31.49218 22.21854,-61.75848 52.46771,-71.27032 30.24918,-9.51182 66.19733,2.48845 84.88797,28.54155 18.69063,26.05309 18.6827,64.17551 -0.0239,90.22852 -18.70646,26.05302 -54.67048,38.05314 -84.93551,28.54107 -30.26502,-9.51206 -52.49943,-39.77869 -52.51529,-71.27126 -0.0158,-31.49257 22.18684,-61.75935 52.42016,-71.27173 30.23332,-9.51239 66.16563,2.48726 84.84042,28.53964 18.67479,26.05238 18.65102,64.17402 -0.0713,90.22616 -18.72234,26.05214 -54.70219,38.05131 -84.98304,28.53822 -30.28087,-9.51309 -52.53108,-39.78083 -52.56275,-71.27458 -0.0317,-31.49376 22.1552,-61.7618 52.37272,-71.27553 30.21752,-9.51373 66.13403,2.4845 84.79303,28.53538 18.659,26.05088 18.61945,64.17093 -0.11866,90.22141 -18.7381,26.0505 -54.73371,38.04793 -85.03033,28.53302 -30.29659,-9.51491 -52.56256,-39.78453 -52.60997,-71.28026 -0.0474,-31.49573 22.12373,-61.76583 52.32554,-71.28168 30.20181,-9.51585 66.10261,2.48016 84.74591,28.52876 18.64331,26.04859 18.58807,64.16628 -0.16571,90.21433 -18.75377,26.04804 -54.76504,38.04295 -85.0773,28.52545 -30.31227,-9.51752 -52.59387,-39.78982 -52.6569,-71.2883 -0.063,-31.49848 22.09251,-61.77141 52.27873,-71.29018 30.18621,-9.51875 66.07144,2.47427 84.69918,28.5198 18.62774,26.04553 18.55696,64.16007 -0.21235,90.2049 -18.7693,26.04483 -54.79609,38.03644 -85.12385,28.51556 -30.32776,-9.52088 -52.62483,-39.79664 -52.70332,-71.29865 -0.0785,-31.50201 22.06159,-61.77855 52.23238,-71.30099 30.17078,-9.52245 66.04061,2.46681 84.65296,28.50851 18.61236,26.04169 18.5262,64.15232 -0.25845,90.19315 -18.78466,26.04084 -54.82678,38.02838 -85.16985,28.50336 -30.34307,-9.52502 -52.65544,-39.805 -52.74919,-71.31131 -0.0938,-31.5063 22.03108,-61.78721 52.18664,-71.31411 30.15557,-9.52689 66.01018,2.45785 84.60736,28.49494 18.59717,26.0371 18.49586,64.14306 -0.30392,90.17914 -18.79979,26.03609 -54.85702,38.01881 -85.21518,28.48888 -30.35815,-9.52993 -52.68558,-39.81488 -52.79437,-71.32623 -0.10879,-31.51136 22.00104,-61.7974 52.14162,-71.3295 30.14058,-9.5321 65.98024,2.44737 84.56248,28.47912 18.58225,26.03174 18.46604,64.13227 -0.34863,90.16286 -18.81467,26.03058 -54.88674,38.00773 -85.25972,28.47215 -30.37297,-9.53557 -52.71519,-39.82624 -52.83875,-71.34339 -0.12356,-31.51716 21.97155,-61.80906 52.09742,-71.3471 30.12587,-9.53804 65.95085,2.43541 84.51845,28.46107 18.5676,26.02565 18.43677,64.12002 -0.39247,90.14437 -18.82926,26.02435 -54.91589,37.9952 -85.30339,28.45324 -30.38749,-9.54194 -52.7442,-39.83907 -52.88222,-71.36275 -0.138,-31.52368 21.94267,-61.82217 52.05415,-71.36688 30.11148,-9.54471 65.92211,2.42201 84.47539,28.44085 18.55327,26.01885 18.40815,64.10633 -0.43536,90.12373 -18.8435,26.0174 -54.94435,37.98122 -85.34603,28.43218 -30.40168,-9.54905 -52.77254,-39.85334 -52.92467,-71.38426 -0.15213,-31.53091 21.91447,-61.83672 52.01191,-71.3888 30.09744,-9.55208 65.89406,2.40719 84.43336,28.41852 18.53932,26.01132 18.38027,64.09123 -0.47713,90.10097 -18.85739,26.00974 -54.9721,37.96584 -85.38759,28.40899 -30.4155,-9.55683 -52.80013,-39.86898 -52.966,-71.40783 -0.16586,-31.53885 21.88704,-61.85265 51.97083,-71.4128 30.08378,-9.56015 65.86679,2.39099 84.39252,28.39411 18.52574,26.00313 18.35316,64.07476 -0.51773,90.07616 -18.8709,26.00141 -54.99904,37.9491 -85.42795,28.38378 -30.4289,-9.56531 -52.8269,-39.886 -53.00609,-71.43345 -0.17918,-31.54745 21.86044,-61.86993 51.93098,-71.43881 30.07055,-9.56889 65.84036,2.37344 84.35295,28.3677 18.51258,25.99426 18.3269,64.05695 -0.55705,90.04935 -18.88395,25.99241 -55.02512,37.93104 -85.467,28.35659 -30.44187,-9.57444 -52.85279,-39.90433 -53.04486,-71.46104 -0.19206,-31.5567 21.83473,-61.88849 51.89249,-71.46677 30.05776,-9.57827 65.81484,2.3546 84.31473,28.33935 18.4999,25.98474 18.30157,64.03785 -0.59497,90.02062 -18.89654,25.98277 -55.05026,37.91169 -85.50464,28.32748 -30.45436,-9.58421 -52.87774,-39.92392 -53.08221,-71.49051 -0.20446,-31.5666 21.80998,-61.90835 51.85545,-71.49664 30.04546,-9.58828 65.79028,2.33452 84.27798,28.30912 18.48769,25.97462 18.2772,64.01753 -0.63144,89.99005 -18.90864,25.9725 -55.0744,37.89111 -85.54077,28.29653 -30.46636,-9.59459 -52.90168,-39.94473 -53.11805,-71.52182 -0.21635,-31.57709 21.78626,-61.9294 51.81993,-71.5283 30.03367,-9.5989 65.76676,2.31323 84.24278,28.27711 18.47601,25.96388 18.2539,63.99601 -0.66631,89.95768 -18.92021,25.96166 -55.0975,37.86936 -85.57533,28.26382 -30.47783,-9.60555 -52.92455,-39.96671 -53.15227,-71.55488 -0.22771,-31.58817 21.76359,-61.9516 51.78602,-71.56169 30.02244,-9.61009 65.74433,2.2908 84.20922,28.24338 18.46488,25.95258 18.2317,63.97336 -0.69953,89.92362 -18.93123,25.95024 -55.11947,37.84649 -85.60821,28.22942 -30.48874,-9.61706 -52.9463,-39.9898 -53.18481,-71.5896 -0.2385,-31.59979 21.74208,-61.9749 51.75384,-71.59673 30.01176,-9.62181 65.72305,2.26728 84.17738,28.20802 18.45433,25.94074 18.21065,63.94963 -0.73102,89.88794 -18.94166,25.93831 -55.14028,37.82255 -85.63933,28.19343 -30.49905,-9.6291 -52.96688,-40.01394 -53.21558,-71.62588 -0.24869,-31.61195 21.72175,-61.99926 51.72343,-71.63334 30.00169,-9.63407 65.70297,2.24273 84.14734,28.17112 18.44438,25.92838 18.19082,63.92487 -0.76067,89.85073 -18.9515,25.92586 -55.15988,37.7976 -85.66864,28.15594 -30.50875,-9.64165 -52.98622,-40.03909 -53.24448,-71.66368 -0.25827,-31.62459 21.70265,-62.02459 51.69489,-71.6714 29.99223,-9.64681 65.68412,2.21721 84.11918,28.13276 18.43505,25.91556 18.17223,63.89916 -0.78845,89.8121 -18.96069,25.91294 -55.17821,37.77171 -85.69603,28.11703 -30.51781,-9.65468 -53.00428,-40.06517 -53.27148,-71.70286 -0.26721,-31.63769 21.68485,-62.05085 51.66828,-71.71085 29.98343,-9.66001 65.66659,2.19077 84.09297,28.09305 18.42639,25.90227 18.15496,63.87256 -0.81427,89.77212 -18.96923,25.89957 -55.19521,37.74494 -85.72143,28.07681 -30.52623,-9.66813 -53.02104,-40.09211 -53.29651,-71.74334 -0.27548,-31.65122 21.66838,-62.07796 51.64368,-71.75157 29.97529,-9.67362 65.65038,2.16349 84.06876,28.05207 18.4184,25.88858 18.13904,63.84513 -0.83805,89.73093 -18.9771,25.88579 -55.21087,37.71733 -85.74482,28.03536 -30.53395,-9.68198 -53.03641,-40.11985 -53.31946,-71.78501 -0.28307,-31.66516 21.65327,-62.10586 51.62112,-71.79349 29.96786,-9.68761 65.63557,2.13546 84.04665,28.00996 18.41108,25.8745 18.12448,63.81693 -0.85977,89.68858 -18.98426,25.87164 -55.22513,37.68901 -85.7661,27.9928 -30.54097,-9.6962 -53.05038,-40.14833 -53.34033,-71.82778 -0.28994,-31.67944 21.63959,-62.13446 51.6007,-71.83645 29.96112,-9.70198 65.62216,2.1067 84.02665,27.96679 18.40448,25.86007 18.11136,63.78805 -0.87934,89.6452 -18.99071,25.85716 -55.23796,37.65999 -85.78523,27.94924 -30.54729,-9.71075 -53.06293,-40.17747 -53.35903,-71.87153 -0.2961,-31.69407 21.62733,-62.16374 51.58243,-71.8804 29.9551,-9.71665 65.61021,2.07733 84.00882,27.92267 18.39862,25.84533 18.0997,63.75855 -0.89672,89.60091 -18.99643,25.84236 -55.24933,37.63038 -85.80217,27.90478 -30.55285,-9.72561 -53.074,-40.2072 -53.37553,-71.91617 -0.30153,-31.70897 21.61656,-62.19357 51.56639,-71.92518 29.94982,-9.73163 65.59972,2.04737 83.99321,27.87771 18.39349,25.83033 18.08953,63.7285 -0.91187,89.5558 -19.00141,25.8273 -55.2592,37.60024 -85.81688,27.85952 -30.55767,-9.74071 -53.08357,-40.23744 -53.38978,-71.96156 -0.3062,-31.72412 21.60729,-62.2239 51.5526,-71.97072 29.94529,-9.74682 65.59074,2.01695 83.97986,27.83204 18.38912,25.81508 18.08086,63.69799 -0.92476,89.51 -19.00562,25.812 -55.26757,37.56963 -85.8293,27.81359 -30.56175,-9.75604 -53.09163,-40.26812 -53.40175,-72.00762 -0.31012,-31.73949 21.59953,-62.25466 51.54108,-72.01689 29.94153,-9.76223 65.5833,1.98612 83.96881,27.78575 18.38551,25.79965 18.07373,63.66708 -0.93535,89.46361 -19.00907,25.79653 -55.27439,37.53866 -85.83943,27.76711 -30.56504,-9.77156 -53.09815,-40.29918 -53.4114,-72.05421 -0.31326,-31.75504 21.59333,-62.28578 51.53187,-72.06358 29.93856,-9.77781 65.57742,1.95494 83.9601,27.73898 18.38268,25.78403 18.06814,63.63585 -0.94362,89.41675 -19.01174,25.7809 -55.27966,37.50738 -85.84722,27.72015 -30.56756,-9.78721 -53.10311,-40.33049 -53.41873,-72.10121 -0.31563,-31.77073 21.58868,-62.31716 51.52503,-72.11067 29.93634,-9.79351 65.57307,1.92352 83.95369,27.69183 18.38064,25.76831 18.06412,63.60439 -0.94953,89.36953 -19.01364,25.76516 -55.28336,37.47587 -85.85266,27.67289 -30.5693,-9.80298 -53.10651,-40.36204 -53.42371,-72.14854 -0.3172,-31.78651 21.5856,-62.34872 51.52052,-72.15803 29.93493,-9.80932 65.57031,1.89191 83.94968,27.64441 18.37936,25.7525 18.06166,63.57276 -0.95309,89.32208 -19.01475,25.74933 -55.2855,37.44423 -85.85575,27.62541 -30.57024,-9.81881 -53.10832,-40.39371 -53.42632,-72.19606 -0.31799,-31.80234 21.5841,-62.38041 51.51839,-72.20557 29.93429,-9.82516 65.56913,1.86022 83.94801,27.59687 18.3789,25.73664 18.0608,63.54105 -0.95426,89.27452 -19.01507,25.73346 -55.28607,37.4125 -85.85647,27.57782 -30.5704,-9.83467 -53.10856,-40.42543 -53.42655,-72.24364 -0.318,-31.81821 21.58417,-62.41213 51.51862,-72.25314 29.93445,-9.84103 65.56952,1.82849 83.94873,27.54928 18.37921,25.72078 18.06151,63.50933 -0.95309,89.22695 -19.01459,25.71761 -55.28503,37.38079 -85.8548,27.53027 -30.56977,-9.85052 -53.10722,-40.45712 -53.42441,-72.29117 -0.31721,-31.83405 21.58583,-62.44381 51.52122,-72.30067 29.9354,-9.85684 65.5715,1.79684 83.95182,27.5018 18.38031,25.70497 18.06379,63.4777 -0.94953,89.17951 -19.01333,25.7018 -55.28243,37.34918 -85.85078,27.48286 -30.56834,-9.86632 -53.10429,-40.48871 -53.41991,-72.33854 -0.31563,-31.84983 21.58907,-62.47538 51.5262,-72.34799 29.93714,-9.87262 65.57505,1.76532 83.95726,27.45453 18.38221,25.68921 18.06767,63.44621 -0.94362,89.13229 -19.01128,25.68607 -55.27824,37.31773 -85.84439,27.4357 -30.56614,-9.88202 -53.0998,-40.52011 -53.41305,-72.38562 -0.31326,-31.86552 21.59388,-62.50673 51.53353,-72.39501 29.93965,-9.88827 65.58016,1.73402 83.96505,27.4076 18.38488,25.67358 18.0731,63.41495 -0.93535,89.08543 -19.00845,25.67047 -55.2725,37.28653 -85.83566,27.38893 -30.56316,-9.89761 -53.09375,-40.55125 -53.40387,-72.43232 -0.31012,-31.88106 21.60025,-62.5378 51.5432,-72.44159 29.94295,-9.90379 65.58684,1.70299 83.97517,27.3611 18.38834,25.6581 18.08008,63.38401 -0.92476,89.03903 -19.00484,25.65503 -55.26521,37.25567 -85.82461,27.34265 -30.5594,-9.91301 -53.08615,-40.58205 -53.39235,-72.47848 -0.3062,-31.89643 21.60815,-62.56852 51.55516,-72.48765 29.94702,-9.91911 65.59505,1.67236 83.98761,27.31517 18.39255,25.64281 18.08859,63.35346 -0.91188,88.99324 -19.00046,25.63978 -55.25639,37.22519 -85.81126,27.29698 -30.55487,-9.92822 -53.07703,-40.61244 -53.37856,-72.52403 -0.30153,-31.91159 21.61757,-62.59881 51.56942,-72.53304 29.95184,-9.93423 65.60477,1.64216 84.0023,27.26991 18.39754,25.62775 18.09862,63.32336 -0.89672,88.94812 -18.99534,25.62477 -55.24607,37.1952 -85.79566,27.25203 -30.5496,-9.94316 -53.0664,-40.64232 -53.36251,-72.56881 -0.2961,-31.9265 21.6285,-62.6286 51.58592,-72.57768 29.95742,-9.94908 65.61599,1.61249 84.01924,27.22545 18.40326,25.61296 18.11013,63.2938 -0.87934,88.90383 -18.98946,25.61003 -55.23425,37.16576 -85.77783,27.20791 -30.54358,-9.95785 -53.0543,-40.67164 -53.34424,-72.61276 -0.28994,-31.94111 21.64089,-62.65779 51.60461,-72.62142 29.96372,-9.96364 65.62868,1.58342 84.03839,27.18188 18.4097,25.59846 18.1231,63.26486 -0.85978,88.86046 -18.98287,25.59561 -55.22099,37.13694 -85.75783,27.16473 -30.53684,-9.9722 -53.04075,-40.70033 -53.32382,-72.65572 -0.28305,-31.9554 21.65473,-62.68635 51.62548,-72.6642 29.97074,-9.97785 65.6428,1.55501 84.05967,27.13932 18.41686,25.58432 18.13751,63.23659 -0.83807,88.81813 -18.97557,25.58152 -55.20631,37.10882 -85.73571,27.1226 -30.52939,-9.98621 -53.02578,-40.7283 -53.30126,-72.69763 -0.27547,-31.96933 21.66997,-62.71416 51.64843,-72.70587 29.97848,-9.9917 65.65832,1.52734 84.08306,27.09788 18.42473,25.57054 18.1533,63.20908 -0.81428,88.77692 -18.96758,25.56783 -55.19025,37.08147 -85.71151,27.08164 -30.52126,-9.99983 -53.00944,-40.7555 -53.27665,-72.73836 -0.26721,-31.98286 21.68657,-62.74119 51.67345,-72.74634 29.98688,-10.00517 65.67519,1.50048 84.10846,27.05765 18.43327,25.55717 18.17044,63.18239 -0.78846,88.73694 -18.9589,25.55455 -55.17284,37.05495 -85.68529,27.04193 -30.51246,-10.01302 -52.99179,-40.78184 -53.25006,-72.77781 -0.25826,-31.99596 21.70451,-62.76735 51.70046,-72.78553 29.99594,-10.01817 65.69338,1.4745 84.13584,27.01875 18.44247,25.54425 18.1889,63.15659 -0.76067,88.69831 -18.94959,25.54172 -55.15414,37.02933 -85.65714,27.00357 -30.50301,-10.02576 -52.97282,-40.80726 -53.22151,-72.81587 -0.2487,-32.00861 21.72372,-62.7926 51.72937,-72.82332 30.00564,-10.03072 65.71285,1.44945 84.16514,26.98125 18.45229,25.5318 18.20861,63.13174 -0.73101,88.66111 -18.93964,25.52936 -55.13417,37.00468 -85.62711,26.96666 -30.49293,-10.03801 -52.9526,-40.83171 -53.1911,-72.85248 -0.2385,-32.02075 21.74417,-62.81684 51.76013,-72.85961 30.01596,-10.04277 65.73355,1.4254 84.19628,26.94526 18.46271,25.51986 18.22954,63.1079 -0.69954,88.62543 -18.92907,25.51753 -55.113,36.98105 -85.59527,26.93131 -30.48225,-10.04975 -52.93119,-40.85513 -53.1589,-72.88752 -0.22772,-32.03239 21.7658,-62.84005 51.79266,-72.89433 30.02686,-10.05429 65.75541,1.40242 84.22915,26.91086 18.47374,25.50845 18.25164,63.08514 -0.6663,88.59137 -18.91795,25.50624 -55.09069,36.95851 -85.56171,26.89758 -30.47102,-10.06093 -52.90866,-40.87746 -53.12501,-72.92091 -0.21636,-32.04347 21.78857,-62.86214 51.82689,-72.9274 30.03833,-10.06524 65.7784,1.38057 84.26371,26.87816 18.48531,25.49761 18.27484,63.06351 -0.63143,88.55901 -18.90627,25.4955 -55.06727,36.9371 -85.5265,26.86556 -30.45923,-10.07155 -52.88504,-40.89862 -53.0895,-72.95257 -0.20447,-32.05397 21.81241,-62.88308 51.86272,-72.9587 30.05033,-10.07562 65.80244,1.35986 84.29985,26.84721 18.49742,25.48734 18.29909,63.04305 -0.59497,88.52842 -18.89407,25.48536 -55.04282,36.91689 -85.48975,26.83534 -30.44694,-10.08156 -52.86038,-40.91858 -53.05245,-72.98244 -0.19207,-32.06384 21.83725,-62.90278 51.90008,-72.98817 30.06281,-10.08539 65.82748,1.3404 84.33749,26.81811 18.51,25.4777 18.32432,63.02383 -0.55706,88.49968 -18.88137,25.47585 -55.01738,36.89794 -85.45153,26.807 -30.43415,-10.09096 -52.83477,-40.9373 -53.01396,-73.01041 -0.17918,-32.0731 21.86306,-62.92124 51.93885,-73.01575 30.07579,-10.09453 65.85346,1.3222 84.37654,26.7909 18.52307,25.4687 18.35048,63.0059 -0.51774,88.47288 -18.86823,25.46699 -54.99105,36.88027 -85.41195,26.78058 -30.42092,-10.09968 -52.80826,-40.95469 -52.97412,-73.03641 -0.16587,-32.08171 21.88975,-62.93839 51.97895,-73.04138 30.08919,-10.10299 65.88032,1.30533 84.41688,26.76569 18.53656,25.46037 18.37751,62.9893 -0.47714,88.44808 -18.85465,25.45878 -54.96385,36.86392 -85.37111,26.75617 -30.40725,-10.10775 -52.78089,-40.97077 -52.93302,-73.06041 -0.15214,-32.08964 21.91725,-62.95418 52.02027,-73.06496 30.10301,-10.11078 65.90798,1.2898 84.45844,26.74252 18.55045,25.45271 18.40533,62.97405 -0.43535,88.42531 -18.84068,25.45127 -54.93589,36.84896 -85.3291,26.73384 -30.39321,-10.11513 -52.75278,-40.98545 -52.89079,-73.08233 -0.13802,-32.09688 21.94552,-62.96857 52.06272,-73.08646 30.1172,-10.11788 65.93639,1.27569 84.5011,26.72145 18.56471,25.44576 18.43388,62.96022 -0.39248,88.40467 -18.82636,25.44445 -54.9072,36.83541 -85.28603,26.71362 -30.37882,-10.12179 -52.72396,-40.99871 -52.84752,-73.10211 -0.12355,-32.10341 21.97447,-62.98156 52.10619,-73.10582 30.13172,-10.12425 65.96547,1.263 84.54476,26.70253 18.57929,25.43953 18.46308,62.94782 -0.34863,88.38619 -18.81172,25.43836 -54.87788,36.8233 -85.24201,26.69557 -30.36411,-10.12774 -52.69451,-41.01052 -52.80331,-73.11971 -0.10879,-32.1092 22.00402,-62.99308 52.15057,-73.12298 30.14654,-10.12991 65.99514,1.25178 84.58931,26.68581 18.59417,25.43403 18.49286,62.93689 -0.30392,88.36991 -18.79679,25.43302 -54.848,36.81268 -85.19713,26.67974 -30.34913,-10.13293 -52.66453,-41.02084 -52.75829,-73.1351 -0.0938,-32.11424 22.03412,-63.00309 52.19574,-73.1379 30.16163,-10.1348 66.02534,1.24206 84.63464,26.67133 18.6093,25.42928 18.52315,62.92747 -0.25846,88.35589 -18.7816,25.42841 -54.81761,36.80356 -85.15152,26.66617 -30.3339,-10.13738 -52.63406,-41.02967 -52.71255,-73.14821 -0.0785,-32.11854 22.06467,-63.01161 52.24161,-73.15056 30.17693,-10.13895 66.05598,1.23384 84.68063,26.65913 18.62465,25.42529 18.55386,62.91956 -0.21235,88.34414 -18.76621,25.42458 -54.78681,36.79596 -85.10529,26.6549 -30.31849,-10.14107 -52.60319,-41.03697 -52.66622,-73.15904 -0.063,-32.12207 22.09562,-63.01859 52.28805,-73.16092 30.19243,-10.14232 66.08699,1.22717 84.72717,26.64924 18.64018,25.42207 18.58494,62.9132 -0.16571,88.33472 -18.75065,25.42151 -54.75568,36.78991 -85.05857,26.64593 -30.30289,-10.14398 -52.57199,-41.0427 -52.6194,-73.16753 -0.0474,-32.12483 22.12688,-63.02403 52.33495,-73.16895 30.20808,-10.14492 66.11829,1.22205 84.77415,26.64168 18.65585,25.41962 18.6163,62.90839 -0.11866,88.32762 -18.73496,25.41923 -54.72427,36.78542 -85.01145,26.63931 -30.28717,-10.14611 -52.54054,-41.04688 -52.57222,-73.17368 -0.0316,-32.1268 22.15836,-63.02789 52.3822,-73.17463 30.22383,-10.14674 66.14981,1.2185 84.82143,26.63647 18.67163,25.41796 18.64786,62.90515 -0.0713,88.32288 -18.71916,25.41773 -54.69269,36.7825 -84.96406,26.63505 -30.27137,-10.14746 -52.50893,-41.0495 -52.52478,-73.17748 -0.0159,-32.12798 22.18999,-63.03018 52.42966,-73.17795 30.23965,-10.14776 66.18147,1.21653 84.86893,26.63362 18.68746,25.41709 18.67953,62.9035 -0.0238,88.32052 -18.70332,25.41701 -54.66099,36.78115 -84.91651,26.63315 -30.25549,-10.14801 -52.4772,-41.05052 -52.4772,-73.1789 0,-32.12838 22.22171,-63.0309 52.47723,-73.1789 30.25552,-10.148 66.2132,1.21613 84.91652,26.63314 18.70332,25.41702 18.71125,62.90343 0.0239,88.32052 -18.68748,25.4171 -54.6293,36.78139 -84.86896,26.63362 -30.23968,-10.14777 -52.44553,-41.04996 -52.42967,-73.17795 0.0158,-32.12798 22.25341,-63.03002 52.52478,-73.17747 30.27137,-10.14746 66.2449,1.21732 84.96406,26.63504 18.71917,25.41773 18.74294,62.90493 0.0713,88.32288 -18.67162,25.41797 -54.5976,36.78322 -84.82143,26.63648 -30.22384,-10.14674 -52.41387,-41.04784 -52.3822,-73.17463 0.0317,-32.1268 22.28505,-63.02757 52.57222,-73.17369 30.28718,-10.1461 66.27649,1.22008 85.01145,26.63932 18.73496,25.41923 18.77451,62.90799 0.11866,88.32762 -18.65586,25.41962 -54.56607,36.78659 -84.77415,26.64167 -30.20807,-10.14492 -52.38236,-41.04412 -52.33495,-73.16895 0.0474,-32.12483 22.31651,-63.02355 52.6194,-73.16752 30.30289,-10.14398 66.30792,1.22442 85.05857,26.64593 18.75065,25.42151 18.80589,62.91265 0.16571,88.33471 -18.64018,25.42207 -54.53474,36.79156 -84.72717,26.64924 -30.19243,-10.14232 -52.35108,-41.03884 -52.28805,-73.16091 0.063,-32.12208 22.34773,-63.01797 52.66622,-73.15904 30.31848,-10.14107 66.33908,1.23032 85.10529,26.6549 18.76621,25.42457 18.837,62.91885 0.21235,88.34414 -18.62465,25.42528 -54.5037,36.79808 -84.68063,26.65913 -30.17694,-10.13895 -52.3201,-41.03202 -52.24161,-73.15056 0.0785,-32.11855 22.37865,-63.01084 52.71255,-73.14822 30.33391,-10.13738 66.36992,1.23776 85.15152,26.66618 18.78161,25.42841 18.86776,62.92661 0.25846,88.35588 -18.6093,25.42928 -54.47301,36.80614 -84.63464,26.67134 -30.16162,-10.13481 -52.2895,-41.02367 -52.19574,-73.13791 0.0938,-32.11425 22.40916,-63.00217 52.75829,-73.1351 30.34913,-10.13294 66.40034,1.24673 85.19713,26.67975 18.79678,25.43302 18.89809,62.93588 0.30392,88.36991 -18.59417,25.43402 -54.44277,36.81571 -84.58931,26.68581 -30.14655,-10.12991 -52.25936,-41.01378 -52.15057,-73.12298 0.1088,-32.1092 22.4392,-62.99198 52.80331,-73.11971 30.36413,-10.12774 66.43029,1.25721 85.24201,26.69557 18.81171,25.43837 18.92792,62.94666 0.34863,88.38619 -18.57929,25.43952 -54.41304,36.82677 -84.54476,26.70252 -30.13172,-10.12426 -52.22974,-41.00241 -52.10619,-73.10581 0.12356,-32.1034 22.4687,-62.98032 52.84752,-73.10211 30.37883,-10.1218 66.45967,1.26916 85.28603,26.71362 18.82636,25.44445 18.95719,62.95891 0.39248,88.40466 -18.56471,25.44576 -54.3839,36.83933 -84.5011,26.72145 -30.1172,-10.11788 -52.20074,-40.98958 -52.06272,-73.08646 0.13801,-32.09688 22.49758,-62.9672 52.89079,-73.08233 30.39321,-10.11512 66.48842,1.28258 85.3291,26.73384 18.84068,25.45127 18.9858,62.9726 0.43535,88.42531 -18.55046,25.45272 -54.35543,36.85331 -84.45844,26.74252 -30.10302,-10.11078 -52.17241,-40.97531 -52.02027,-73.06496 0.15213,-32.08963 22.52577,-62.95266 52.93302,-73.06041 30.40726,-10.10775 66.51646,1.2974 85.37111,26.75618 18.85465,25.45878 19.0137,62.9877 0.47714,88.44807 -18.53656,25.46036 -54.32769,36.86868 -84.41688,26.76569 -30.0892,-10.10299 -52.14482,-40.95966 -51.97895,-73.04138 0.16586,-32.08171 22.5532,-62.93673 52.97412,-73.03641 30.4209,-10.09968 66.54372,1.31359 85.41195,26.78058 18.86822,25.46699 19.04081,63.00418 0.51774,88.47288 -18.52308,25.46871 -54.30075,36.88543 -84.37654,26.79091 -30.07579,-10.09452 -52.11803,-40.94265 -51.93885,-73.01575 0.17919,-32.07311 22.57981,-62.91946 53.01396,-73.01041 30.43415,-10.09094 66.57016,1.33114 85.45153,26.80699 18.88138,25.47585 19.06706,63.02199 0.55706,88.49969 -18.51001,25.4777 -54.27468,36.90349 -84.33749,26.8181 -30.06283,-10.08539 -52.09215,-40.92432 -51.90008,-72.98817 0.19207,-32.06385 22.60551,-62.90087 53.05245,-72.98244 30.44693,-10.08155 66.59568,1.34999 85.48975,26.83535 18.89406,25.48536 19.09239,63.04107 0.59497,88.52842 -18.49741,25.48734 -54.24952,36.92283 -84.29985,26.84721 -30.05031,-10.07563 -52.06719,-40.90474 -51.86272,-72.9587 0.20446,-32.05396 22.63027,-62.88103 53.0895,-72.95257 30.45923,-10.07155 66.62023,1.37005 85.5265,26.86556 18.90627,25.4955 19.11674,63.0614 0.63143,88.559 -18.48531,25.4976 -54.22538,36.94341 -84.26371,26.87816 -30.03832,-10.06525 -52.04325,-40.88393 -51.82689,-72.92739 0.21635,-32.04346 22.65399,-62.85998 53.12501,-72.92091 30.47102,-10.06093 66.64376,1.39134 85.56171,26.89757 18.91794,25.50624 19.14004,63.08292 0.6663,88.59137 -18.47374,25.50845 -54.20229,36.96516 -84.22915,26.91087 -30.02686,-10.05428 -52.02038,-40.86195 -51.79266,-72.89434 0.22771,-32.03238 22.67665,-62.83777 53.1589,-72.88751 30.48227,-10.04975 66.6662,1.41377 85.59527,26.93131 18.92908,25.51752 19.16225,63.10556 0.69954,88.62542 -18.46273,25.51986 -54.18032,36.98803 -84.19628,26.94527 -30.01596,-10.04277 -51.99863,-40.83886 -51.76013,-72.85962 0.2385,-32.02076 22.69817,-62.81446 53.1911,-72.85248 30.49294,-10.03801 66.68747,1.4373 85.62711,26.96667 18.93962,25.52937 19.1833,63.1293 0.73101,88.66111 -18.45229,25.53179 -54.1595,37.01197 -84.16514,26.98125 -30.00565,-10.03072 -51.97807,-40.81471 -51.72937,-72.82332 0.24869,-32.00862 22.7185,-62.79012 53.22151,-72.81587 30.503,-10.02577 66.70755,1.46184 85.65714,27.00357 18.94957,25.54172 19.20314,63.15405 0.76067,88.6983 -18.44246,25.54425 -54.1399,37.03692 -84.13584,27.01875 -29.99595,-10.01818 -51.95872,-40.78956 -51.70046,-72.78553 0.25827,-31.99597 22.7376,-62.76478 53.25006,-72.7778 30.51245,-10.01303 66.72639,1.48737 85.68529,27.04192 18.9589,25.55456 19.22173,63.17978 0.78846,88.73695 -18.43327,25.55717 -54.12158,37.06281 -84.10846,27.05765 -29.98688,-10.00515 -51.94066,-40.76348 -51.67345,-72.74635 0.26721,-31.98286 22.75539,-62.73852 53.27665,-72.73835 30.52126,-9.99984 66.74393,1.51381 85.71151,27.08164 18.96758,25.56783 19.23901,63.20637 0.81428,88.77691 -18.42474,25.57054 -54.10458,37.08959 -84.08306,27.09788 -29.97846,-9.99171 -51.9239,-40.73654 -51.64843,-72.70587 0.27548,-31.96932 22.77187,-62.71142 53.30126,-72.69763 30.5294,-9.98622 66.76014,1.54108 85.73571,27.12261 18.97558,25.58153 19.25493,63.2338 0.83807,88.81812 -18.41687,25.58432 -54.08893,37.11718 -84.05967,27.13933 -29.97075,-9.97786 -51.90853,-40.7088 -51.62548,-72.6642 0.28307,-31.9554 22.78698,-62.68352 53.32382,-72.65573 30.53684,-9.97221 66.77496,1.56912 85.75783,27.16473 18.98288,25.59561 19.26948,63.262 0.85978,88.86047 -18.40971,25.59846 -54.07467,37.14551 -84.03839,27.18187 -29.96372,-9.96362 -51.89455,-40.68031 -51.60461,-72.62142 0.28994,-31.94111 22.80066,-62.6549 53.34424,-72.61276 30.54358,-9.95785 66.78837,1.59788 85.77783,27.20791 18.98947,25.61003 19.2826,63.29088 0.87934,88.90384 -18.40325,25.61295 -54.06182,37.17453 -84.01924,27.22544 -29.95742,-9.94908 -51.88202,-40.65118 -51.58592,-72.57767 0.29611,-31.9265 22.81291,-62.62565 53.36251,-72.56882 30.54959,-9.94317 66.80032,1.62725 85.79566,27.25203 18.99534,25.62477 19.29426,63.32038 0.89672,88.94812 -18.39753,25.62776 -54.05046,37.20415 -84.0023,27.26992 -29.95185,-9.93423 -51.87095,-40.62146 -51.56942,-72.53305 0.30153,-31.91158 22.82369,-62.5958 53.37856,-72.52402 30.55487,-9.92822 66.8108,1.6572 85.81126,27.29698 19.00047,25.63977 19.30443,63.35043 0.91188,88.99323 -18.39256,25.64281 -54.04059,37.23429 -83.98761,27.31517 -29.94701,-9.91913 -51.86136,-40.59121 -51.55516,-72.48765 0.3062,-31.89643 22.83295,-62.56547 53.39235,-72.47848 30.5594,-9.91302 66.81977,1.68762 85.82461,27.34265 19.00484,25.65502 19.3131,63.38094 0.92476,89.03904 -18.38833,25.6581 -54.03222,37.26488 -83.97517,27.3611 -29.94295,-9.90379 -51.85332,-40.56054 -51.5432,-72.4416 0.31012,-31.88106 22.84071,-62.53471 53.40387,-72.43231 30.56316,-9.89761 66.82721,1.71845 85.83566,27.38893 19.00845,25.67047 19.32023,63.41185 0.93535,89.08543 -18.38489,25.67358 -54.0254,37.29587 -83.96505,27.40759 -29.93965,-9.88828 -51.84679,-40.52949 -51.53353,-72.395 0.31325,-31.86551 22.84691,-62.50361 53.41305,-72.38563 30.56615,-9.88203 66.83311,1.74963 85.84439,27.43571 19.01129,25.68607 19.32583,63.44307 0.94362,89.13228 -18.38221,25.68922 -54.02012,37.32715 -83.95726,27.45454 -29.93713,-9.87262 -51.84183,-40.49816 -51.5262,-72.34799 0.31562,-31.84983 22.85157,-62.47223 53.41991,-72.33855 30.56835,-9.86632 66.83745,1.78106 85.85078,27.48287 19.01332,25.7018 19.32984,63.47454 0.94953,89.1795 -18.38032,25.70496 -54.01642,37.35865 -83.95182,27.5018 -29.93539,-9.85685 -51.83843,-40.46661 -51.52122,-72.30067 0.31719,-31.83404 22.85464,-62.44065 53.42441,-72.29117 30.56977,-9.85052 66.84021,1.81266 85.8548,27.53028 19.0146,25.71761 19.3323,63.50616 0.95309,89.22695 -18.37921,25.72078 -54.01428,37.3903 -83.94873,27.54928 -29.93445,-9.84102 -51.83662,-40.43494 -51.51862,-72.25315 0.31799,-31.81821 22.85615,-62.40897 53.42655,-72.24364 30.5704,-9.83468 66.8414,1.84436 85.85647,27.57782 19.01506,25.73348 19.33316,63.53789 0.95426,89.27453 -18.37888,25.73664 -54.01372,37.42202 -83.94801,27.59686 -29.93429,-9.82516 -51.83638,-40.40322 -51.51839,-72.20557 0.318,-31.80235 22.85608,-62.37725 53.42632,-72.19606 30.57025,-9.81882 66.841,1.87608 85.85575,27.62541 19.01475,25.74932 19.33245,63.56959 0.95309,89.32208 -18.37937,25.7525 -54.01475,37.45373 -83.94968,27.64442 -29.93492,-9.80931 -51.83772,-40.37153 -51.52052,-72.15804 0.3172,-31.7865 22.85441,-62.34556 53.42371,-72.14854 30.5693,-9.80298 66.83902,1.90773 85.85266,27.67289 19.01365,25.76515 19.33017,63.60123 0.94953,89.36953 -18.38062,25.76831 -54.01735,37.48535 -83.95369,27.69183 -29.93635,-9.7935 -51.84066,-40.33994 -51.52503,-72.11066 0.31562,-31.77072 22.85117,-62.31401 53.41873,-72.10122 30.56756,-9.78722 66.83548,1.93925 85.84722,27.72015 19.01176,25.7809 19.3263,63.63272 0.94362,89.41676 -18.38268,25.78403 -54.02154,37.51679 -83.9601,27.73898 -29.93854,-9.77781 -51.84513,-40.30854 -51.53187,-72.06358 0.31325,-31.75504 22.84636,-62.28265 53.4114,-72.05421 30.56504,-9.77156 66.83036,1.97056 85.83943,27.7671 19.00908,25.79653 19.32086,63.66397 0.93535,89.46361 -18.38551,25.79964 -54.02728,37.54798 -83.96881,27.78575 -29.94155,-9.76222 -51.8512,-40.2774 -51.54108,-72.01689 0.31012,-31.73949 22.84,-62.25157 53.40175,-72.00762 30.56173,-9.75604 66.82368,2.00159 85.8293,27.8136 19.00562,25.81201 19.31388,63.69492 0.92476,89.51 -18.38912,25.81508 -54.03457,37.57885 -83.97986,27.83204 -29.94531,-9.74682 -51.8588,-40.2466 -51.5526,-71.97073 0.30621,-31.72412 22.83211,-62.22085 53.38978,-71.96156 30.55768,-9.74072 66.81547,2.03222 85.81688,27.85953 19.0014,25.82729 19.30536,63.72546 0.91187,89.5558 -18.39349,25.83033 -54.04339,37.60933 -83.99321,27.87771 -29.94983,-9.73161 -51.86792,-40.21622 -51.56639,-71.92519 0.30153,-31.70896 22.82268,-62.19056 53.37553,-71.91617 30.55284,-9.72559 66.80574,2.06242 85.80217,27.90479 18.99642,25.84236 19.29534,63.75557 0.89672,89.60091 -18.39861,25.84534 -54.05372,37.63932 -84.00882,27.92266 -29.9551,-9.71665 -51.87853,-40.18633 -51.58243,-71.88039 0.2961,-31.69406 22.81174,-62.16078 53.35903,-71.87154 30.54727,-9.71075 66.79452,2.09209 85.78523,27.94925 18.9907,25.85715 19.28382,63.78513 0.87934,89.6452 -18.40449,25.86008 -54.06553,37.66877 -84.02665,27.96679 -29.96111,-9.70199 -51.89064,-40.15702 -51.6007,-71.83646 0.28995,-31.67945 22.79936,-62.13158 53.34033,-71.82778 30.54097,-9.6962 66.78184,2.12116 85.7661,27.9928 18.98425,25.87165 19.27085,63.81408 0.85977,89.68858 -18.41108,25.87451 -54.07879,37.69758 -84.04665,28.00996 -29.96785,-9.68763 -51.90419,-40.12833 -51.62112,-71.79348 0.28305,-31.66516 22.78551,-62.10304 53.31946,-71.78502 30.53395,-9.68197 66.76772,2.14957 85.74482,28.03537 18.97709,25.88579 19.25645,63.84234 0.83805,89.73092 -18.41838,25.88858 -54.09347,37.7257 -84.06876,28.05208 -29.9753,-9.67362 -51.91916,-40.10036 -51.64368,-71.75158 0.27547,-31.65122 22.77028,-62.07521 53.29651,-71.74334 30.52622,-9.66813 66.7522,2.17724 85.72143,28.07681 18.96923,25.89957 19.24066,63.86985 0.81427,89.77213 -18.42638,25.90228 -54.10954,37.75305 -84.09297,28.09305 -29.98343,-9.66001 -51.93549,-40.07316 -51.66828,-71.71086 0.2672,-31.63769 22.75367,-62.04818 53.27148,-71.70286 30.51782,-9.65468 66.73534,2.2041 85.69603,28.11704 18.96068,25.91294 19.2235,63.89654 0.78845,89.8121 -18.43506,25.91555 -54.12695,37.77956 -84.11918,28.13275 -29.99224,-9.6468 -51.95316,-40.04681 -51.69489,-71.6714 0.25826,-31.62459 22.73573,-62.02202 53.24448,-71.66368 30.50876,-9.64166 66.71714,2.23008 85.66864,28.15595 18.95149,25.92585 19.20505,63.92234 0.76067,89.85073 -18.44437,25.92839 -54.14565,37.80519 -84.14734,28.17111 -30.00168,-9.63407 -51.97212,-40.02139 -51.72343,-71.63333 0.2487,-31.61194 22.71653,-61.99678 53.21558,-71.62589 30.49905,-9.62912 66.69767,2.25512 85.63933,28.19343 18.94167,25.93831 19.18535,63.94721 0.73102,89.88794 -18.45433,25.94074 -54.16562,37.82984 -84.17738,28.20802 -30.01176,-9.62182 -51.99234,-39.99694 -51.75384,-71.59673 0.23851,-31.5998 22.69607,-61.97253 53.18481,-71.5896 30.48874,-9.61706 66.67698,2.27918 85.60821,28.22943 18.93123,25.95025 19.16441,63.97103 0.69953,89.92361 -18.46489,25.95258 -54.18678,37.85347 -84.20922,28.24339 -30.02243,-9.61009 -52.01373,-39.97353 -51.78602,-71.5617 0.22772,-31.58817 22.67444,-61.94933 53.15227,-71.55487 30.47783,-9.60554 66.65512,2.30216 85.57533,28.26382 18.92021,25.96167 19.14232,63.99379 0.66631,89.95768 -18.47602,25.96387 -54.20911,37.87601 -84.24278,28.2771 -30.03367,-9.59889 -52.03628,-39.9512 -51.81993,-71.52829 0.21637,-31.57709 22.65169,-61.92724 53.11805,-71.52182 30.46637,-9.59458 66.63213,2.32402 85.54077,28.29652 18.90864,25.97252 19.11913,64.01545 0.63144,89.99005 -18.4877,25.97461 -54.23252,37.89741 -84.27798,28.30912 -30.04547,-9.58828 -52.05991,-39.93003 -51.85545,-71.49663 0.20447,-31.5666 22.62785,-61.90631 53.08221,-71.49051 30.45438,-9.58421 66.6081,2.34471 85.50464,28.32747 18.89654,25.98277 19.09487,64.03589 0.59497,90.02063 -18.49989,25.98475 -54.25697,37.91762 -84.31473,28.33935 -30.05776,-9.57828 -52.08455,-39.91008 -51.89249,-71.46678 0.19207,-31.55671 22.60299,-61.88659 53.04486,-71.46104 30.44188,-9.57444 66.58305,2.36419 85.467,28.35659 18.88395,25.99241 19.06963,64.05509 0.55705,90.04936 -18.51259,25.99425 -54.2824,37.93658 -84.35295,28.36769 -30.07054,-9.56888 -52.11016,-39.89136 -51.93098,-71.4388 0.17919,-31.54746 22.57719,-61.86814 53.00609,-71.43346 30.42891,-9.56531 66.55705,2.38238 85.42795,28.38379 18.87089,26.0014 19.04347,64.07303 0.51773,90.07616 -18.52573,26.00312 -54.30874,37.95425 -84.39252,28.3941 -30.08379,-9.56015 -52.13669,-39.87395 -51.97083,-71.4128 0.16587,-31.53884 22.5505,-61.85099 52.966,-71.40783 30.41549,-9.55684 66.5302,2.39925 85.38759,28.409 18.8574,26.00974 19.01645,64.08964 0.47713,90.10097 -18.5393,26.01133 -54.33592,37.9706 -84.43336,28.41851 -30.09744,-9.55208 -52.16404,-39.85788 -52.01191,-71.3888 0.15213,-31.53091 22.52299,-61.8352 52.92467,-71.38425 30.40168,-9.54905 66.50253,2.41478 85.34603,28.43217 18.84351,26.0174 18.98863,64.10489 0.43536,90.12373 -18.55328,26.01885 -54.36391,37.98556 -84.47539,28.44085 -30.11148,-9.5447 -52.19215,-39.8432 -52.05415,-71.36688 0.13802,-31.52368 22.49473,-61.8208 52.88222,-71.36275 30.3875,-9.54195 66.47413,2.42889 85.30339,28.45325 18.82924,26.02434 18.96007,64.11871 0.39247,90.14437 -18.5676,26.02566 -54.39258,37.99911 -84.51845,28.46106 -30.12587,-9.53803 -52.22098,-39.82994 -52.09742,-71.34709 0.12356,-31.51715 22.46578,-61.80782 52.83875,-71.3434 30.37298,-9.53557 66.44505,2.44158 85.25972,28.47216 18.81467,26.03059 18.93088,64.13112 0.34863,90.16286 -18.58224,26.03175 -54.4219,38.01121 -84.56248,28.47912 -30.14058,-9.53211 -52.25041,-39.81814 -52.14162,-71.3295 0.10879,-31.51135 22.43622,-61.7963 52.79437,-71.32623 30.35816,-9.52993 66.41539,2.45279 85.21518,28.48888 18.79978,26.03608 18.90109,64.14203 0.30392,90.17913 -18.59718,26.03709 -54.45179,38.02183 -84.60736,28.49494 -30.15556,-9.52689 -52.28041,-39.80781 -52.18664,-71.31411 0.0937,-31.50631 22.40612,-61.78628 52.74919,-71.31131 30.34307,-9.52502 66.38519,2.46252 85.16985,28.50337 18.78465,26.04083 18.87081,64.15145 0.25845,90.19314 -18.61235,26.0417 -54.48218,38.03097 -84.65296,28.50852 -30.17079,-9.52245 -52.31088,-39.79898 -52.23238,-71.30099 0.0785,-31.50202 22.37556,-61.77777 52.70332,-71.29865 30.32776,-9.52088 66.35455,2.47073 85.12385,28.51556 18.76931,26.04482 18.84009,64.15937 0.21235,90.2049 -18.62774,26.04553 -54.51297,38.03855 -84.69918,28.51979 -30.18622,-9.51877 -52.34175,-39.7917 -52.27873,-71.29017 0.063,-31.49849 22.34463,-61.77079 52.6569,-71.2883 30.31226,-9.51751 66.32353,2.47741 85.0773,28.52545 18.75378,26.04805 18.80902,64.16573 0.16571,90.21433 -18.6433,26.0486 -54.5441,38.04461 -84.74591,28.52876 -30.20181,-9.51586 -52.37295,-39.78596 -52.32554,-71.28169 0.0474,-31.49572 22.31338,-61.76535 52.60999,-71.28025 30.29662,-9.51492 66.29223,2.48252 85.03033,28.53301 18.73811,26.05049 18.77766,64.17053 0.11866,90.22142 -18.659,26.05088 -54.57551,38.0491 -84.79303,28.53537 -30.21752,-9.51372 -52.40439,-39.78177 -52.37272,-71.27552 0.0317,-31.49376 22.28188,-61.76149 52.56275,-71.27458 30.28085,-9.5131 66.2607,2.48607 84.98304,28.53822 18.72233,26.05214 18.7461,64.17377 0.0713,90.22616 -18.67479,26.05238 -54.6071,38.05202 -84.84042,28.53964 -30.23332,-9.51239 -52.43601,-39.77917 -52.42016,-71.27174 0.0159,-31.49257 22.25027,-61.7592 52.51529,-71.27125 30.26503,-9.51208 66.22905,2.48804 84.93554,28.54106 18.7065,26.05301 18.71443,64.17543 0.0239,90.22853 -18.69067,26.05309 -54.63882,38.05337 -84.888,28.54154 C 542.21854,561.75843 520,531.49212 520,499.99995 Z"
     style="display:inline;fill:#060606;fill-opacity:1;stroke:url(#radialGradient7410);stroke-width:0.7624802;stroke-miterlimit:4;stroke-dasharray:none"
     inkscape:connector-curvature="0" />
  <g
     inkscape:groupmode="layer"
     id="layer1"
     inkscape:label="Layer 1"
     style="display:inline">
    <circle
       style="display:inline;opacity:1;fill:url(#radialGradient7386);fill-opacity:1;stroke:#dfdfdf;stroke-width:0.32631111;stroke-linecap:round;stroke-linejoin:round;stroke-miterlimit:4;stroke-dasharray:none;stroke-opacity:1;paint-order:normal"
       id="path7131-3"
       cx="500.00223"
       cy="499.99997"
       r="114.20889" />
    <circle
       style="display:inline;opacity:1;fill:url(#radialGradient7378);fill-opacity:1;stroke:#dfdfdf;stroke-width:0.32631111;stroke-linecap:round;stroke-linejoin:round;stroke-miterlimit:4;stroke-dasharray:none;stroke-opacity:1;paint-order:normal"
       id="path7131-3-1"
       cx="500.00223"
       cy="499.99997"
       r="114.20889" />
    <circle
       style="display:inline;opacity:1;fill:url(#radialGradient7370);fill-opacity:1;stroke:#dfdfdf;stroke-width:0.32631111;stroke-linecap:round;stroke-linejoin:round;stroke-miterlimit:4;stroke-dasharray:none;stroke-opacity:1;paint-order:normal"
       id="path7131-3-1-2"
       cx="500.00223"
       cy="499.99997"
       r="114.20889" />
  </g>
  <ellipse
     style="display:inline;opacity:1;fill:url(#radialGradient7402);fill-opacity:1;stroke:#4d4d4d;stroke-width:0.31668198;stroke-linecap:round;stroke-linejoin:round;stroke-miterlimit:4;stroke-dasharray:none;stroke-opacity:1;paint-order:normal"
     id="path7131-8"
     cx="500.00223"
     cy="499.99997"
     rx="109.58296"
     ry="112.10882" />
  <circle
     style="display:inline;opacity:1;fill:#f1f1f1;fill-opacity:0;stroke:#dfdfdf;stroke-width:0.32631111;stroke-linecap:round;stroke-linejoin:round;stroke-miterlimit:4;stroke-dasharray:none;stroke-opacity:1;paint-order:normal"
     id="path7131"
     cx="500.00223"
     cy="499.99997"
     r="114.20889" />
  <g
     inkscape:groupmode="layer"
     id="layer4"
     inkscape:label="Layer 4"
     style="display:inline" />
  <g
     inkscape:groupmode="layer"
     id="layer2"
     inkscape:label="Layer 2"
     style="display:inline">
    <circle
       style="opacity:1;fill:url(#linearGradient8163);fill-opacity:1;stroke:#4d4d4d;stroke-width:0.9845385;stroke-linecap:round;stroke-linejoin:round;stroke-miterlimit:4;stroke-dasharray:none;stroke-opacity:0;paint-order:normal;filter:url(#filter9905)"
       id="path7872"
       cx="500.57986"
       cy="500.05551"
       r="49.226925"
       transform="matrix(0.38124011,0,0,0.38124011,309.38218,309.37991)" />
    <ellipse
       style="opacity:1;fill:url(#linearGradient8163-6);fill-opacity:1;stroke:#4d4d4d;stroke-width:0.97445798;stroke-linecap:round;stroke-linejoin:round;stroke-miterlimit:4;stroke-dasharray:none;stroke-opacity:0;paint-order:normal;filter:url(#filter9136)"
       id="path7872-7"
       cx="500.3616"
       cy="500.18805"
       rx="48.528469"
       ry="48.918106"
       transform="matrix(0.38124011,0,0,0.38124011,309.38218,309.37991)" />
    <ellipse
       style="opacity:1;fill:url(#linearGradient8163-5);fill-opacity:1;stroke:#4d4d4d;stroke-width:0.99033463;stroke-linecap:round;stroke-linejoin:round;stroke-miterlimit:4;stroke-dasharray:none;stroke-opacity:0;paint-order:normal;filter:url(#filter9124)"
       id="path7872-4"
       cx="500.12387"
       cy="500.28452"
       rx="49.614429"
       ry="49.419228"
       transform="matrix(0.38124011,0,0,0.38124011,309.38218,309.37991)" />
    <circle
       style="display:inline;opacity:1;fill:url(#radialGradient10003);fill-opacity:1;stroke:#4d4d4d;stroke-width:0.9845385;stroke-linecap:round;stroke-linejoin:round;stroke-miterlimit:4;stroke-dasharray:none;stroke-opacity:0;paint-order:normal;filter:url(#filter10271)"
       id="path7872-2"
       cx="500.57986"
       cy="500.05551"
       r="49.226925"
       inkscape:export-xdpi="96"
       inkscape:export-ydpi="96"
       transform="matrix(0.38124011,0,0,0.38124011,309.38218,309.37991)" />
  </g>
</svg>
