<?xml version="1.0" encoding="UTF-8" standalone="no"?>
<!DOCTYPE svg PUBLIC "-//W3C//DTD SVG 1.1//EN" "http://www.w3.org/Graphics/SVG/1.1/DTD/svg11.dtd">
<svg width="100%" height="100%" viewBox="0 0 1200 1200" version="1.1" xmlns="http://www.w3.org/2000/svg" xmlns:xlink="http://www.w3.org/1999/xlink" xml:space="preserve" xmlns:serif="http://www.serif.com/" style="fill-rule:evenodd;clip-rule:evenodd;stroke-linecap:round;stroke-linejoin:round;stroke-miterlimit:1.5;">
    <g transform="matrix(1.2,0,0,1.2,0,0)">
        <rect x="0" y="0" width="1000" height="1000" style="fill:rgb(37,51,56);"/>
    </g>
    <g transform="matrix(0.851064,0,0,0.851064,174.468,174.468)">
        <circle cx="500" cy="500" r="470" style="fill:rgb(239,68,56);"/>
    </g>
    <g transform="matrix(0.851064,0,0,0.851064,174.468,174.468)">
        <circle cx="500" cy="500" r="470" style="fill:none;stroke:rgb(37,51,56);stroke-width:35.25px;"/>
    </g>
    <g transform="matrix(1,0,0,1,100,100)">
        <g transform="matrix(0.95,0,0,0.95,25,25)">
            <circle cx="500" cy="500" r="200" style="fill:rgb(37,51,56);stroke:rgb(37,51,56);stroke-width:73.68px;"/>
        </g>
        <g>
            <g transform="matrix(0.554974,0.961244,-0.846927,0.483079,756.971,-29.9125)">
                <path d="M300,100C189.543,100 100,279.086 100,500L300,500L300,100Z" style="fill:rgb(37,51,56);"/>
            </g>
            <path d="M692.824,390.015L838.771,306.768C946.462,493.295 882.09,731.017 694.992,837.736L694.992,837.736C799.21,775.345 798.378,575.787 692.824,390.015ZM500,500C500,500 500,500 500,500Z" style="fill:rgb(37,51,56);"/>
            <g transform="matrix(-0.961244,0.554974,-0.483079,-0.846927,1029.91,756.971)">
                <path d="M500,500C500,279.086 410.457,100 300,100C189.543,100 100,279.086 100,500L500,500Z" style="fill:rgb(37,51,56);fill-opacity:0.75;"/>
            </g>
        </g>
        <circle cx="500" cy="500" r="200" style="fill:none;stroke:rgb(251,179,21);stroke-width:20px;"/>
        <g>
            <g>
                <path d="M448.454,469.292C403.929,479.342 364.209,502.133 333.332,533.625C331.146,522.754 330,511.51 330,500C330,406.174 406.174,330 500,330C593.826,330 670,406.174 670,500C670,511.51 668.854,522.754 666.668,533.625C635.791,502.133 596.071,479.342 551.546,469.292C541.069,451.754 521.896,440 500,440C478.104,440 458.931,451.754 448.454,469.292Z" style="fill:rgb(154,219,245);"/>
                <path d="M500.55,330.001L501.099,330.003L501.647,330.008L502.196,330.014L502.744,330.022L503.291,330.031L503.838,330.043L504.385,330.056L504.931,330.07L505.477,330.087L506.022,330.105L506.567,330.125L507.112,330.146L507.656,330.17L508.199,330.195L508.743,330.221L509.285,330.25L509.828,330.28L510.37,330.312L510.911,330.345L511.452,330.38L511.992,330.417L512.532,330.456L513.072,330.496L513.611,330.538L514.15,330.582L514.688,330.627L515.225,330.674L515.762,330.723L516.299,330.773L516.835,330.825L517.371,330.878L517.906,330.934L518.441,330.991L518.975,331.049L519.509,331.109L520.042,331.171L520.575,331.235L521.107,331.3L521.639,331.367L522.171,331.435L522.701,331.505L523.231,331.577L523.761,331.651L524.29,331.726L524.819,331.802L525.347,331.88L525.875,331.96L526.402,332.042L526.928,332.125L527.454,332.21L527.98,332.296L528.505,332.384L529.029,332.473L529.553,332.564L530.076,332.657L530.599,332.752L531.121,332.847L531.643,332.945L532.164,333.044L532.685,333.145L533.205,333.247L533.724,333.351L534.243,333.456L534.761,333.563L535.279,333.672L535.796,333.782L536.312,333.894L536.828,334.007L537.344,334.122L537.859,334.238L538.373,334.356L538.886,334.476L539.399,334.597L539.912,334.72L540.424,334.844L540.935,334.97L541.445,335.097L541.955,335.226L542.465,335.356L542.973,335.488L543.482,335.621L543.989,335.756L544.496,335.893L545.002,336.031L545.508,336.17L546.013,336.311L546.517,336.454L547.021,336.598L547.524,336.743L548.027,336.89L548.529,337.039L549.03,337.189L549.53,337.341L550.03,337.494L550.529,337.648L551.028,337.804L551.526,337.962L552.023,338.121L552.52,338.281L553.016,338.443L553.511,338.607L554.006,338.772L554.5,338.938L554.993,339.106L555.485,339.276L555.977,339.446L556.469,339.619L556.959,339.793L557.449,339.968L557.938,340.144L558.427,340.323L558.914,340.502L559.401,340.683L559.888,340.866L560.373,341.05L560.858,341.235L561.342,341.422L561.826,341.61L562.309,341.8L562.791,341.991L563.272,342.183L563.753,342.377L564.233,342.573L564.712,342.769L565.19,342.968L565.668,343.167L566.145,343.368L566.621,343.571L567.097,343.775L567.572,343.98L568.046,344.186L568.519,344.395L568.991,344.604L569.463,344.815L569.934,345.027L570.404,345.241L570.874,345.456L571.343,345.672L571.811,345.89L572.278,346.109L572.744,346.329L573.21,346.551L573.675,346.775L574.139,346.999L574.602,347.225L575.064,347.453L575.526,347.681L575.987,347.911L576.447,348.143L576.907,348.375L577.365,348.61L577.823,348.845L578.28,349.082L578.736,349.32L579.191,349.559L579.646,349.8L580.099,350.042L580.552,350.286L581.004,350.531L581.455,350.777L581.906,351.024L582.355,351.273L582.804,351.523L583.252,351.775L583.699,352.027L584.145,352.281L584.591,352.537L585.035,352.793L585.479,353.051L585.922,353.311L586.364,353.571L586.805,353.833L587.245,354.096L587.685,354.36L588.123,354.626L588.561,354.893L588.998,355.161L589.434,355.431L589.869,355.702L590.303,355.974L590.736,356.247L591.169,356.522L591.6,356.798L592.031,357.075L592.461,357.353L592.89,357.633L593.318,357.914L593.745,358.196L594.171,358.479L594.597,358.764L595.021,359.05L595.445,359.337L595.867,359.625L596.289,359.915L596.71,360.206L597.129,360.498L597.548,360.791L597.966,361.086L598.384,361.382L598.8,361.679L599.215,361.977L599.629,362.276L600.043,362.577L600.455,362.879L600.867,363.182L601.277,363.486L601.687,363.791L602.095,364.098L602.503,364.406L602.91,364.715L603.316,365.025L603.72,365.337L604.124,365.649L604.527,365.963L604.929,366.278L605.33,366.594L605.73,366.912L606.129,367.23L606.527,367.55L606.924,367.871L607.32,368.193L607.716,368.516L608.11,368.84L608.503,369.166L608.895,369.492L609.286,369.82L609.676,370.149L610.065,370.479L610.454,370.81L610.841,371.143L611.227,371.476L611.612,371.811L611.996,372.147L612.379,372.483L612.761,372.822L613.142,373.161L613.522,373.501L613.901,373.842L614.279,374.185L614.656,374.529L615.032,374.873L615.407,375.219L615.781,375.566L616.154,375.914L616.525,376.263L616.896,376.614L617.266,376.965L617.634,377.318L618.002,377.671L618.368,378.026L618.734,378.382L619.098,378.738L619.461,379.096L619.823,379.455L620.185,379.815L620.545,380.177L620.904,380.539L621.262,380.902L621.618,381.266L621.974,381.632L622.329,381.998L622.682,382.366L623.035,382.734L623.386,383.104L623.737,383.475L624.086,383.846L624.434,384.219L624.781,384.593L625.127,384.968L625.471,385.344L625.815,385.721L626.158,386.099L626.499,386.478L626.839,386.858L627.178,387.239L627.517,387.621L627.853,388.004L628.189,388.388L628.524,388.773L628.857,389.159L629.19,389.546L629.521,389.935L629.851,390.324L630.18,390.714L630.508,391.105L630.834,391.497L631.16,391.89L631.484,392.284L631.807,392.68L632.129,393.076L632.45,393.473L632.77,393.871L633.088,394.27L633.406,394.67L633.722,395.071L634.037,395.473L634.351,395.876L634.663,396.28L634.975,396.684L635.285,397.09L635.594,397.497L635.902,397.905L636.209,398.313L636.514,398.723L636.818,399.133L637.121,399.545L637.423,399.957L637.724,400.371L638.023,400.785L638.321,401.2L638.618,401.616L638.914,402.034L639.209,402.452L639.502,402.871L639.794,403.29L640.085,403.711L640.375,404.133L640.663,404.555L640.95,404.979L641.236,405.403L641.521,405.829L641.804,406.255L642.086,406.682L642.367,407.11L642.647,407.539L642.925,407.969L643.202,408.4L643.478,408.831L643.753,409.264L644.026,409.697L644.298,410.131L644.569,410.566L644.839,411.002L645.107,411.439L645.374,411.877L645.64,412.315L645.904,412.755L646.167,413.195L646.429,413.636L646.689,414.078L646.949,414.521L647.207,414.965L647.463,415.409L647.719,415.855L647.973,416.301L648.225,416.748L648.477,417.196L648.727,417.645L648.976,418.094L649.223,418.545L649.469,418.996L649.714,419.448L649.958,419.901L650.2,420.354L650.441,420.809L650.68,421.264L650.918,421.72L651.155,422.177L651.39,422.635L651.625,423.093L651.857,423.553L652.089,424.013L652.319,424.474L652.547,424.936L652.775,425.398L653.001,425.861L653.225,426.325L653.449,426.79L653.671,427.256L653.891,427.722L654.11,428.189L654.328,428.657L654.544,429.126L654.759,429.596L654.973,430.066L655.185,430.537L655.396,431.009L655.605,431.481L655.814,431.954L656.02,432.428L656.225,432.903L656.429,433.379L656.632,433.855L656.833,434.332L657.032,434.81L657.231,435.288L657.427,435.767L657.623,436.247L657.817,436.728L658.009,437.209L658.2,437.691L658.39,438.174L658.578,438.658L658.765,439.142L658.95,439.627L659.134,440.112L659.317,440.599L659.498,441.086L659.677,441.573L659.856,442.062L660.032,442.551L660.207,443.041L660.381,443.531L660.554,444.023L660.724,444.515L660.894,445.007L661.062,445.5L661.228,445.994L661.393,446.489L661.557,446.984L661.719,447.48L661.879,447.977L662.038,448.474L662.196,448.972L662.352,449.471L662.506,449.97L662.659,450.47L662.811,450.97L662.961,451.471L663.11,451.973L663.257,452.476L663.402,452.979L663.546,453.483L663.689,453.987L663.83,454.492L663.969,454.998L664.107,455.504L664.244,456.011L664.379,456.518L664.512,457.027L664.644,457.535L664.774,458.045L664.903,458.555L665.03,459.065L665.156,459.576L665.28,460.088L665.403,460.601L665.524,461.114L665.644,461.627L665.762,462.141L665.878,462.656L665.993,463.172L666.106,463.688L666.218,464.204L666.328,464.721L666.437,465.239L666.544,465.757L666.649,466.276L666.753,466.795L666.855,467.315L666.956,467.836L667.055,468.357L667.153,468.879L667.248,469.401L667.343,469.924L667.436,470.447L667.527,470.971L667.616,471.495L667.704,472.02L667.79,472.546L667.875,473.072L667.958,473.598L668.04,474.125L668.12,474.653L668.198,475.181L668.274,475.71L668.349,476.239L668.423,476.769L668.495,477.299L668.565,477.829L668.633,478.361L668.7,478.893L668.765,479.425L668.829,479.958L668.891,480.491L668.951,481.025L669.009,481.559L669.066,482.094L669.122,482.629L669.175,483.165L669.227,483.701L669.277,484.238L669.326,484.775L669.373,485.312L669.418,485.85L669.462,486.389L669.504,486.928L669.544,487.468L669.583,488.008L669.62,488.548L669.655,489.089L669.688,489.63L669.72,490.172L669.75,490.715L669.779,491.257L669.805,491.801L669.83,492.344L669.854,492.888L669.875,493.433L669.895,493.978L669.913,494.523L669.93,495.069L669.944,495.615L669.957,496.162L669.969,496.709L669.978,497.256L669.986,497.804L669.992,498.353L669.997,498.901L669.999,499.45L670,500L669.999,500.539L669.997,501.078L669.992,501.617L669.987,502.155L669.979,502.693L669.97,503.23L669.959,503.767L669.946,504.304L669.932,504.84L669.916,505.375L669.899,505.911L669.88,506.446L669.859,506.98L669.837,507.514L669.812,508.048L669.787,508.581L669.759,509.114L669.73,509.646L669.7,510.178L669.667,510.709L669.634,511.24L669.598,511.771L669.561,512.301L669.522,512.831L669.482,513.36L669.44,513.889L669.396,514.417L669.351,514.945L669.304,515.473L669.255,516L669.205,516.526L669.154,517.052L669.1,517.578L669.046,518.103L668.989,518.627L668.931,519.152L668.871,519.675L668.81,520.198L668.747,520.721L668.683,521.243L668.617,521.765L668.549,522.286L668.48,522.807L668.409,523.327L668.337,523.847L668.263,524.366L668.188,524.885L668.111,525.403L668.032,525.921L667.952,526.438L667.87,526.955L667.787,527.471L667.702,527.987L667.616,528.502L667.528,529.017L667.439,529.531L667.348,530.045L667.255,530.558L667.161,531.07L667.066,531.582L666.969,532.094L666.87,532.605L666.77,533.115L666.668,533.625L666.306,533.256L665.943,532.888L665.579,532.521L665.214,532.155L664.849,531.79L664.483,531.425L664.116,531.061L663.748,530.698L663.379,530.336L663.01,529.974L662.639,529.614L662.268,529.254L661.896,528.895L661.524,528.537L661.15,528.18L660.776,527.823L660.401,527.467L660.025,527.112L659.649,526.758L659.271,526.405L658.893,526.053L658.514,525.701L658.135,525.35L657.754,525L657.373,524.651L656.991,524.303L656.608,523.956L656.225,523.609L655.84,523.263L655.455,522.918L655.069,522.574L654.683,522.231L654.295,521.889L653.907,521.547L653.518,521.206L653.129,520.867L652.738,520.528L652.347,520.189L651.955,519.852L651.562,519.516L651.169,519.18L650.775,518.845L650.38,518.511L649.984,518.178L649.588,517.846L649.19,517.515L648.792,517.185L648.394,516.855L647.994,516.526L647.594,516.198L647.193,515.871L646.792,515.545L646.389,515.22L645.986,514.896L645.582,514.572L645.178,514.25L644.773,513.928L644.367,513.607L643.96,513.287L643.552,512.968L643.144,512.65L642.735,512.332L642.326,512.016L641.915,511.7L641.504,511.386L641.093,511.072L640.68,510.759L640.267,510.447L639.853,510.136L639.438,509.826L639.023,509.517L638.607,509.208L638.19,508.901L637.773,508.594L637.355,508.288L636.936,507.984L636.516,507.68L636.096,507.377L635.675,507.075L635.253,506.774L634.831,506.473L634.408,506.174L633.984,505.876L633.56,505.578L633.135,505.282L632.709,504.986L632.282,504.691L631.855,504.397L631.428,504.104L630.999,503.813L630.57,503.521L630.14,503.231L629.709,502.942L629.278,502.654L628.846,502.367L628.414,502.08L627.98,501.795L627.547,501.51L627.112,501.227L626.677,500.944L626.241,500.662L625.804,500.382L625.367,500.102L624.929,499.823L624.49,499.545L624.051,499.268L623.611,498.992L623.171,498.717L622.73,498.443L622.288,498.17L621.845,497.898L621.402,497.626L620.958,497.356L620.514,497.087L620.069,496.818L619.623,496.551L619.177,496.285L618.73,496.019L618.282,495.755L617.834,495.491L617.385,495.228L616.935,494.967L616.485,494.706L616.034,494.447L615.583,494.188L615.131,493.93L614.678,493.674L614.225,493.418L613.771,493.163L613.316,492.909L612.861,492.656L612.405,492.405L611.949,492.154L611.492,491.904L611.034,491.655L610.576,491.407L610.117,491.161L609.658,490.915L609.197,490.67L608.737,490.426L608.275,490.183L607.813,489.941L607.351,489.7L606.888,489.46L606.424,489.222L605.96,488.984L605.495,488.747L605.029,488.511L604.563,488.276L604.096,488.042L603.629,487.81L603.161,487.578L602.692,487.347L602.223,487.117L601.754,486.889L601.283,486.661L600.812,486.434L600.341,486.209L599.869,485.984L599.396,485.76L598.923,485.538L598.449,485.316L597.975,485.096L597.5,484.876L597.025,484.658L596.549,484.44L596.072,484.224L595.595,484.009L595.117,483.794L594.639,483.581L594.16,483.369L593.68,483.158L593.2,482.947L592.72,482.738L592.239,482.53L591.757,482.323L591.275,482.117L590.792,481.913L590.309,481.709L589.825,481.506L589.34,481.304L588.855,481.103L588.37,480.904L587.884,480.705L587.397,480.508L586.91,480.311L586.422,480.116L585.934,479.922L585.445,479.729L584.956,479.536L584.466,479.345L583.975,479.155L583.485,478.966L582.993,478.779L582.501,478.592L582.009,478.406L581.516,478.221L581.022,478.038L580.528,477.855L580.033,477.674L579.538,477.494L579.042,477.315L578.546,477.136L578.05,476.959L577.552,476.783L577.055,476.609L576.556,476.435L576.058,476.262L575.558,476.091L575.059,475.92L574.558,475.751L574.058,475.583L573.556,475.415L573.055,475.249L572.552,475.084L572.049,474.921L571.546,474.758L571.042,474.596L570.538,474.436L570.033,474.276L569.528,474.118L569.022,473.961L568.516,473.805L568.009,473.65L567.502,473.496L566.995,473.344L566.486,473.192L565.978,473.042L565.469,472.892L564.959,472.744L564.449,472.597L563.938,472.451L563.427,472.306L562.916,472.163L562.404,472.02L561.891,471.879L561.378,471.738L560.865,471.599L560.351,471.461L559.837,471.325L559.322,471.189L558.807,471.054L558.291,470.921L557.775,470.789L557.258,470.658L556.741,470.528L556.224,470.399L555.706,470.271L555.187,470.145L554.668,470.019L554.149,469.895L553.629,469.772L553.109,469.65L552.588,469.53L552.067,469.41L551.546,469.292L551.422,469.086L551.299,468.882L551.174,468.678L551.048,468.474L550.922,468.271L550.795,468.068L550.667,467.866L550.538,467.665L550.409,467.464L550.278,467.263L550.147,467.064L550.016,466.864L549.883,466.666L549.75,466.467L549.616,466.27L549.481,466.073L549.345,465.876L549.209,465.68L549.072,465.485L548.934,465.29L548.795,465.096L548.656,464.902L548.516,464.709L548.375,464.517L548.233,464.325L548.091,464.134L547.947,463.943L547.804,463.753L547.659,463.563L547.514,463.374L547.368,463.186L547.221,462.998L547.073,462.811L546.925,462.624L546.776,462.438L546.626,462.253L546.476,462.068L546.325,461.884L546.173,461.7L546.02,461.517L545.867,461.335L545.713,461.153L545.559,460.972L545.403,460.792L545.247,460.612L545.09,460.433L544.933,460.254L544.775,460.076L544.616,459.899L544.456,459.722L544.296,459.546L544.135,459.371L543.973,459.196L543.811,459.022L543.648,458.848L543.484,458.676L543.32,458.503L543.155,458.332L542.989,458.161L542.823,457.991L542.656,457.821L542.488,457.652L542.32,457.484L542.151,457.316L541.981,457.149L541.811,456.983L541.64,456.818L541.468,456.653L541.296,456.488L541.123,456.325L540.949,456.162L540.775,456L540.6,455.838L540.425,455.677L540.248,455.517L540.072,455.358L539.894,455.199L539.716,455.041L539.537,454.884L539.358,454.727L539.178,454.571L538.998,454.416L538.816,454.261L538.635,454.107L538.452,453.954L538.269,453.802L538.086,453.65L537.901,453.499L537.716,453.349L537.531,453.199L537.345,453.05L537.158,452.902L536.971,452.755L536.783,452.608L536.595,452.462L536.406,452.317L536.216,452.172L536.026,452.029L535.835,451.886L535.643,451.743L535.451,451.602L535.259,451.461L535.066,451.321L534.872,451.182L534.678,451.043L534.483,450.905L534.287,450.768L534.091,450.632L533.895,450.497L533.697,450.362L533.5,450.228L533.302,450.095L533.103,449.962L532.903,449.831L532.703,449.7L532.503,449.57L532.302,449.44L532.1,449.312L531.898,449.184L531.696,449.057L531.492,448.931L531.289,448.805L531.084,448.681L530.88,448.557L530.674,448.434L530.468,448.311L530.262,448.19L530.055,448.069L529.848,447.95L529.64,447.83L529.431,447.712L529.222,447.595L529.013,447.478L528.803,447.362L528.592,447.247L528.381,447.133L528.169,447.02L527.957,446.907L527.745,446.796L527.532,446.685L527.318,446.575L527.104,446.465L526.89,446.357L526.675,446.25L526.459,446.143L526.243,446.037L526.027,445.932L525.81,445.828L525.592,445.724L525.374,445.622L525.156,445.52L524.937,445.419L524.718,445.319L524.498,445.22L524.278,445.122L524.057,445.025L523.836,444.928L523.614,444.833L523.392,444.738L523.169,444.644L522.946,444.551L522.723,444.459L522.499,444.368L522.274,444.277L522.049,444.188L521.824,444.099L521.598,444.011L521.372,443.924L521.146,443.838L520.919,443.753L520.691,443.669L520.463,443.586L520.235,443.503L520.006,443.422L519.777,443.341L519.547,443.261L519.317,443.183L519.087,443.105L518.856,443.028L518.625,442.952L518.393,442.877L518.161,442.802L517.929,442.729L517.696,442.657L517.462,442.585L517.229,442.514L516.995,442.445L516.76,442.376L516.525,442.308L516.29,442.242L516.054,442.176L515.818,442.111L515.582,442.047L515.345,441.984L515.108,441.921L514.87,441.86L514.632,441.8L514.394,441.741L514.155,441.682L513.916,441.625L513.676,441.568L513.437,441.513L513.196,441.458L512.956,441.405L512.715,441.352L512.474,441.301L512.232,441.25L511.99,441.2L511.748,441.152L511.505,441.104L511.262,441.057L511.018,441.011L510.775,440.967L510.531,440.923L510.286,440.88L510.042,440.838L509.796,440.797L509.551,440.757L509.305,440.719L509.059,440.681L508.813,440.644L508.566,440.608L508.319,440.573L508.072,440.539L507.824,440.506L507.576,440.475L507.328,440.444L507.079,440.414L506.83,440.385L506.581,440.357L506.331,440.331L506.082,440.305L505.831,440.28L505.581,440.257L505.33,440.234L505.079,440.212L504.828,440.192L504.576,440.172L504.324,440.154L504.072,440.136L503.82,440.12L503.567,440.104L503.314,440.09L503.061,440.077L502.807,440.065L502.553,440.053L502.299,440.043L502.045,440.034L501.79,440.026L501.535,440.019L501.28,440.013L501.024,440.009L500.769,440.005L500.513,440.002L500.256,440.001L500,440L499.744,440.001L499.487,440.002L499.231,440.005L498.976,440.009L498.72,440.013L498.465,440.019L498.21,440.026L497.955,440.034L497.701,440.043L497.447,440.053L497.193,440.065L496.939,440.077L496.686,440.09L496.433,440.104L496.18,440.12L495.928,440.136L495.676,440.154L495.424,440.172L495.172,440.192L494.921,440.212L494.67,440.234L494.419,440.257L494.169,440.28L493.918,440.305L493.669,440.331L493.419,440.357L493.17,440.385L492.921,440.414L492.672,440.444L492.424,440.475L492.176,440.506L491.928,440.539L491.681,440.573L491.434,440.608L491.187,440.644L490.941,440.681L490.695,440.719L490.449,440.757L490.204,440.797L489.958,440.838L489.714,440.88L489.469,440.923L489.225,440.967L488.982,441.011L488.738,441.057L488.495,441.104L488.252,441.152L488.01,441.2L487.768,441.25L487.526,441.301L487.285,441.352L487.044,441.405L486.804,441.458L486.563,441.513L486.324,441.568L486.084,441.625L485.845,441.682L485.606,441.741L485.368,441.8L485.13,441.86L484.892,441.921L484.655,441.984L484.418,442.047L484.182,442.111L483.946,442.176L483.71,442.242L483.475,442.308L483.24,442.376L483.005,442.445L482.771,442.514L482.538,442.585L482.304,442.657L482.071,442.729L481.839,442.802L481.607,442.877L481.375,442.952L481.144,443.028L480.913,443.105L480.683,443.183L480.453,443.261L480.223,443.341L479.994,443.422L479.765,443.503L479.537,443.586L479.309,443.669L479.081,443.753L478.854,443.838L478.628,443.924L478.402,444.011L478.176,444.099L477.951,444.188L477.726,444.277L477.501,444.368L477.277,444.459L477.054,444.551L476.831,444.644L476.608,444.738L476.386,444.833L476.164,444.928L475.943,445.025L475.722,445.122L475.502,445.22L475.282,445.319L475.063,445.419L474.844,445.52L474.626,445.622L474.408,445.724L474.19,445.828L473.973,445.932L473.757,446.037L473.541,446.143L473.325,446.25L473.11,446.357L472.896,446.465L472.682,446.575L472.468,446.685L472.255,446.796L472.043,446.907L471.831,447.02L471.619,447.133L471.408,447.247L471.197,447.362L470.987,447.478L470.778,447.595L470.569,447.712L470.36,447.83L470.152,447.95L469.945,448.069L469.738,448.19L469.532,448.311L469.326,448.434L469.12,448.557L468.916,448.681L468.711,448.805L468.508,448.931L468.304,449.057L468.102,449.184L467.9,449.312L467.698,449.44L467.497,449.57L467.297,449.7L467.097,449.831L466.897,449.962L466.698,450.095L466.5,450.228L466.303,450.362L466.105,450.497L465.909,450.632L465.713,450.768L465.517,450.905L465.322,451.043L465.128,451.182L464.934,451.321L464.741,451.461L464.549,451.602L464.357,451.743L464.165,451.886L463.974,452.029L463.784,452.172L463.594,452.317L463.405,452.462L463.217,452.608L463.029,452.755L462.842,452.902L462.655,453.05L462.469,453.199L462.284,453.349L462.099,453.499L461.914,453.65L461.731,453.802L461.548,453.954L461.365,454.107L461.184,454.261L461.002,454.416L460.822,454.571L460.642,454.727L460.463,454.884L460.284,455.041L460.106,455.199L459.928,455.358L459.752,455.517L459.575,455.677L459.4,455.838L459.225,456L459.051,456.162L458.877,456.325L458.704,456.488L458.532,456.653L458.36,456.818L458.189,456.983L458.019,457.149L457.849,457.316L457.68,457.484L457.512,457.652L457.344,457.821L457.177,457.991L457.011,458.161L456.845,458.332L456.68,458.503L456.516,458.676L456.352,458.848L456.189,459.022L456.027,459.196L455.865,459.371L455.704,459.546L455.544,459.722L455.384,459.899L455.225,460.076L455.067,460.254L454.91,460.433L454.753,460.612L454.597,460.792L454.441,460.972L454.287,461.153L454.133,461.335L453.98,461.517L453.827,461.7L453.675,461.884L453.524,462.068L453.374,462.253L453.224,462.438L453.075,462.624L452.927,462.811L452.779,462.998L452.632,463.186L452.486,463.374L452.341,463.563L452.196,463.753L452.053,463.943L451.909,464.134L451.767,464.325L451.625,464.517L451.484,464.709L451.344,464.902L451.205,465.096L451.066,465.29L450.928,465.485L450.791,465.68L450.655,465.876L450.519,466.073L450.384,466.27L450.25,466.467L450.117,466.666L449.984,466.864L449.853,467.064L449.722,467.263L449.591,467.464L449.462,467.665L449.333,467.866L449.205,468.068L449.078,468.271L448.952,468.474L448.826,468.678L448.701,468.882L448.578,469.086L448.454,469.292L447.933,469.41L447.412,469.53L446.891,469.65L446.371,469.772L445.851,469.895L445.332,470.019L444.813,470.145L444.294,470.271L443.776,470.399L443.259,470.528L442.742,470.658L442.225,470.789L441.709,470.921L441.193,471.054L440.678,471.189L440.163,471.325L439.649,471.461L439.135,471.599L438.622,471.738L438.109,471.879L437.596,472.02L437.084,472.163L436.573,472.306L436.062,472.451L435.551,472.597L435.041,472.744L434.531,472.892L434.022,473.042L433.514,473.192L433.005,473.344L432.498,473.496L431.991,473.65L431.484,473.805L430.978,473.961L430.472,474.118L429.967,474.276L429.462,474.436L428.958,474.596L428.454,474.758L427.951,474.921L427.448,475.084L426.945,475.249L426.444,475.415L425.942,475.583L425.442,475.751L424.941,475.92L424.442,476.091L423.942,476.262L423.444,476.435L422.945,476.609L422.448,476.783L421.95,476.959L421.454,477.136L420.958,477.315L420.462,477.494L419.967,477.674L419.472,477.855L418.978,478.038L418.484,478.221L417.991,478.406L417.499,478.592L417.007,478.779L416.515,478.966L416.025,479.155L415.534,479.345L415.044,479.536L414.555,479.729L414.066,479.922L413.578,480.116L413.09,480.311L412.603,480.508L412.116,480.705L411.63,480.904L411.145,481.103L410.66,481.304L410.175,481.506L409.691,481.709L409.208,481.913L408.725,482.117L408.243,482.323L407.761,482.53L407.28,482.738L406.8,482.947L406.32,483.158L405.84,483.369L405.361,483.581L404.883,483.794L404.405,484.009L403.928,484.224L403.451,484.44L402.975,484.658L402.5,484.876L402.025,485.096L401.551,485.316L401.077,485.538L400.604,485.76L400.131,485.984L399.659,486.209L399.188,486.434L398.717,486.661L398.246,486.889L397.777,487.117L397.308,487.347L396.839,487.578L396.371,487.81L395.904,488.042L395.437,488.276L394.971,488.511L394.505,488.747L394.04,488.984L393.576,489.222L393.112,489.46L392.649,489.7L392.187,489.941L391.725,490.183L391.263,490.426L390.803,490.67L390.342,490.915L389.883,491.161L389.424,491.407L388.966,491.655L388.508,491.904L388.051,492.154L387.595,492.405L387.139,492.656L386.684,492.909L386.229,493.163L385.775,493.418L385.322,493.674L384.869,493.93L384.417,494.188L383.966,494.447L383.515,494.706L383.065,494.967L382.615,495.228L382.166,495.491L381.718,495.755L381.27,496.019L380.823,496.285L380.377,496.551L379.931,496.818L379.486,497.087L379.042,497.356L378.598,497.626L378.155,497.898L377.712,498.17L377.27,498.443L376.829,498.717L376.389,498.992L375.949,499.268L375.51,499.545L375.071,499.823L374.633,500.102L374.196,500.382L373.759,500.662L373.323,500.944L372.888,501.227L372.453,501.51L372.02,501.795L371.586,502.08L371.154,502.367L370.722,502.654L370.291,502.942L369.86,503.231L369.43,503.521L369.001,503.813L368.572,504.104L368.145,504.397L367.718,504.691L367.291,504.986L366.865,505.282L366.44,505.578L366.016,505.876L365.592,506.174L365.169,506.473L364.747,506.774L364.325,507.075L363.904,507.377L363.484,507.68L363.064,507.984L362.645,508.288L362.227,508.594L361.81,508.901L361.393,509.208L360.977,509.517L360.562,509.826L360.147,510.136L359.733,510.447L359.32,510.759L358.907,511.072L358.496,511.386L358.085,511.7L357.674,512.016L357.265,512.332L356.856,512.65L356.448,512.968L356.04,513.287L355.633,513.607L355.227,513.928L354.822,514.25L354.418,514.572L354.014,514.896L353.611,515.22L353.208,515.545L352.807,515.871L352.406,516.198L352.006,516.526L351.606,516.855L351.208,517.185L350.81,517.515L350.412,517.846L350.016,518.178L349.62,518.511L349.225,518.845L348.831,519.18L348.438,519.516L348.045,519.852L347.653,520.189L347.262,520.528L346.871,520.867L346.482,521.206L346.093,521.547L345.705,521.889L345.317,522.231L344.931,522.574L344.545,522.918L344.16,523.263L343.775,523.609L343.392,523.956L343.009,524.303L342.627,524.651L342.246,525L341.865,525.35L341.486,525.701L341.107,526.053L340.729,526.405L340.351,526.758L339.975,527.112L339.599,527.467L339.224,527.823L338.85,528.18L338.476,528.537L338.104,528.895L337.732,529.254L337.361,529.614L336.99,529.974L336.621,530.336L336.252,530.698L335.884,531.061L335.517,531.425L335.151,531.79L334.786,532.155L334.421,532.521L334.057,532.888L333.694,533.256L333.332,533.625L333.23,533.115L333.13,532.605L333.031,532.094L332.934,531.582L332.839,531.07L332.745,530.558L332.652,530.045L332.561,529.531L332.472,529.017L332.384,528.502L332.298,527.987L332.213,527.471L332.13,526.955L332.048,526.438L331.968,525.921L331.889,525.403L331.812,524.885L331.737,524.366L331.663,523.847L331.591,523.327L331.52,522.807L331.451,522.286L331.383,521.765L331.317,521.243L331.253,520.721L331.19,520.198L331.129,519.675L331.069,519.152L331.011,518.627L330.954,518.103L330.9,517.578L330.846,517.052L330.795,516.526L330.745,516L330.696,515.473L330.649,514.945L330.604,514.417L330.56,513.889L330.518,513.36L330.478,512.831L330.439,512.301L330.402,511.771L330.366,511.24L330.333,510.709L330.3,510.178L330.27,509.646L330.241,509.114L330.213,508.581L330.188,508.048L330.163,507.514L330.141,506.98L330.12,506.446L330.101,505.911L330.084,505.375L330.068,504.84L330.054,504.304L330.041,503.767L330.03,503.23L330.021,502.693L330.013,502.155L330.008,501.617L330.003,501.078L330.001,500.539L330,500L330.001,499.45L330.003,498.901L330.008,498.353L330.014,497.804L330.022,497.256L330.031,496.709L330.043,496.162L330.056,495.615L330.07,495.069L330.087,494.523L330.105,493.978L330.125,493.433L330.146,492.888L330.17,492.344L330.195,491.801L330.221,491.257L330.25,490.715L330.28,490.172L330.312,489.63L330.345,489.089L330.38,488.548L330.417,488.008L330.456,487.468L330.496,486.928L330.538,486.389L330.582,485.85L330.627,485.312L330.674,484.775L330.723,484.238L330.773,483.701L330.825,483.165L330.878,482.629L330.934,482.094L330.991,481.559L331.049,481.025L331.109,480.491L331.171,479.958L331.235,479.425L331.3,478.893L331.367,478.361L331.435,477.829L331.505,477.299L331.577,476.769L331.651,476.239L331.726,475.71L331.802,475.181L331.88,474.653L331.96,474.125L332.042,473.598L332.125,473.072L332.21,472.546L332.296,472.02L332.384,471.495L332.473,470.971L332.564,470.447L332.657,469.924L332.752,469.401L332.847,468.879L332.945,468.357L333.044,467.836L333.145,467.315L333.247,466.795L333.351,466.276L333.456,465.757L333.563,465.239L333.672,464.721L333.782,464.204L333.894,463.688L334.007,463.172L334.122,462.656L334.238,462.141L334.356,461.627L334.476,461.114L334.597,460.601L334.72,460.088L334.844,459.576L334.97,459.065L335.097,458.555L335.226,458.045L335.356,457.535L335.488,457.027L335.621,456.518L335.756,456.011L335.893,455.504L336.031,454.998L336.17,454.492L336.311,453.987L336.454,453.483L336.598,452.979L336.743,452.476L336.89,451.973L337.039,451.471L337.189,450.97L337.341,450.47L337.494,449.97L337.648,449.471L337.804,448.972L337.962,448.474L338.121,447.977L338.281,447.48L338.443,446.984L338.607,446.489L338.772,445.994L338.938,445.5L339.106,445.007L339.276,444.515L339.446,444.023L339.619,443.531L339.793,443.041L339.968,442.551L340.144,442.062L340.323,441.573L340.502,441.086L340.683,440.599L340.866,440.112L341.05,439.627L341.235,439.142L341.422,438.658L341.61,438.174L341.8,437.691L341.991,437.209L342.183,436.728L342.377,436.247L342.573,435.767L342.769,435.288L342.968,434.81L343.167,434.332L343.368,433.855L343.571,433.379L343.775,432.903L343.98,432.428L344.186,431.954L344.395,431.481L344.604,431.009L344.815,430.537L345.027,430.066L345.241,429.596L345.456,429.126L345.672,428.657L345.89,428.189L346.109,427.722L346.329,427.256L346.551,426.79L346.775,426.325L346.999,425.861L347.225,425.398L347.453,424.936L347.681,424.474L347.911,424.013L348.143,423.553L348.375,423.093L348.61,422.635L348.845,422.177L349.082,421.72L349.32,421.264L349.559,420.809L349.8,420.354L350.042,419.901L350.286,419.448L350.531,418.996L350.777,418.545L351.024,418.094L351.273,417.645L351.523,417.196L351.775,416.748L352.027,416.301L352.281,415.855L352.537,415.409L352.793,414.965L353.051,414.521L353.311,414.078L353.571,413.636L353.833,413.195L354.096,412.755L354.36,412.315L354.626,411.877L354.893,411.439L355.161,411.002L355.431,410.566L355.702,410.131L355.974,409.697L356.247,409.264L356.522,408.831L356.798,408.4L357.075,407.969L357.353,407.539L357.633,407.11L357.914,406.682L358.196,406.255L358.479,405.829L358.764,405.403L359.05,404.979L359.337,404.555L359.625,404.133L359.915,403.711L360.206,403.29L360.498,402.871L360.791,402.452L361.086,402.034L361.382,401.616L361.679,401.2L361.977,400.785L362.276,400.371L362.577,399.957L362.879,399.545L363.182,399.133L363.486,398.723L363.791,398.313L364.098,397.905L364.406,397.497L364.715,397.09L365.025,396.684L365.337,396.28L365.649,395.876L365.963,395.473L366.278,395.071L366.594,394.67L366.912,394.27L367.23,393.871L367.55,393.473L367.871,393.076L368.193,392.68L368.516,392.284L368.84,391.89L369.166,391.497L369.492,391.105L369.82,390.714L370.149,390.324L370.479,389.935L370.81,389.546L371.143,389.159L371.476,388.773L371.811,388.388L372.147,388.004L372.483,387.621L372.822,387.239L373.161,386.858L373.501,386.478L373.842,386.099L374.185,385.721L374.529,385.344L374.873,384.968L375.219,384.593L375.566,384.219L375.914,383.846L376.263,383.475L376.614,383.104L376.965,382.734L377.318,382.366L377.671,381.998L378.026,381.632L378.382,381.266L378.738,380.902L379.096,380.539L379.455,380.177L379.815,379.815L380.177,379.455L380.539,379.096L380.902,378.738L381.266,378.382L381.632,378.026L381.998,377.671L382.366,377.318L382.734,376.965L383.104,376.614L383.475,376.263L383.846,375.914L384.219,375.566L384.593,375.219L384.968,374.873L385.344,374.529L385.721,374.185L386.099,373.842L386.478,373.501L386.858,373.161L387.239,372.822L387.621,372.483L388.004,372.147L388.388,371.811L388.773,371.476L389.159,371.143L389.546,370.81L389.935,370.479L390.324,370.149L390.714,369.82L391.105,369.492L391.497,369.166L391.89,368.84L392.284,368.516L392.68,368.193L393.076,367.871L393.473,367.55L393.871,367.23L394.27,366.912L394.67,366.594L395.071,366.278L395.473,365.963L395.876,365.649L396.28,365.337L396.684,365.025L397.09,364.715L397.497,364.406L397.905,364.098L398.313,363.791L398.723,363.486L399.133,363.182L399.545,362.879L399.957,362.577L400.371,362.276L400.785,361.977L401.2,361.679L401.616,361.382L402.034,361.086L402.452,360.791L402.871,360.498L403.29,360.206L403.711,359.915L404.133,359.625L404.555,359.337L404.979,359.05L405.403,358.764L405.829,358.479L406.255,358.196L406.682,357.914L407.11,357.633L407.539,357.353L407.969,357.075L408.4,356.798L408.831,356.522L409.264,356.247L409.697,355.974L410.131,355.702L410.566,355.431L411.002,355.161L411.439,354.893L411.877,354.626L412.315,354.36L412.755,354.096L413.195,353.833L413.636,353.571L414.078,353.311L414.521,353.051L414.965,352.793L415.409,352.537L415.855,352.281L416.301,352.027L416.748,351.775L417.196,351.523L417.645,351.273L418.094,351.024L418.545,350.777L418.996,350.531L419.448,350.286L419.901,350.042L420.354,349.8L420.809,349.559L421.264,349.32L421.72,349.082L422.177,348.845L422.635,348.61L423.093,348.375L423.553,348.143L424.013,347.911L424.474,347.681L424.936,347.453L425.398,347.225L425.861,346.999L426.325,346.775L426.79,346.551L427.256,346.329L427.722,346.109L428.189,345.89L428.657,345.672L429.126,345.456L429.596,345.241L430.066,345.027L430.537,344.815L431.009,344.604L431.481,344.395L431.954,344.186L432.428,343.98L432.903,343.775L433.379,343.571L433.855,343.368L434.332,343.167L434.81,342.968L435.288,342.769L435.767,342.573L436.247,342.377L436.728,342.183L437.209,341.991L437.691,341.8L438.174,341.61L438.658,341.422L439.142,341.235L439.627,341.05L440.112,340.866L440.599,340.683L441.086,340.502L441.573,340.323L442.062,340.144L442.551,339.968L443.041,339.793L443.531,339.619L444.023,339.446L444.515,339.276L445.007,339.106L445.5,338.938L445.994,338.772L446.489,338.607L446.984,338.443L447.48,338.281L447.977,338.121L448.474,337.962L448.972,337.804L449.471,337.648L449.97,337.494L450.47,337.341L450.97,337.189L451.471,337.039L451.973,336.89L452.476,336.743L452.979,336.598L453.483,336.454L453.987,336.311L454.492,336.17L454.998,336.031L455.504,335.893L456.011,335.756L456.518,335.621L457.027,335.488L457.535,335.356L458.045,335.226L458.555,335.097L459.065,334.97L459.576,334.844L460.088,334.72L460.601,334.597L461.114,334.476L461.627,334.356L462.141,334.238L462.656,334.122L463.172,334.007L463.688,333.894L464.204,333.782L464.721,333.672L465.239,333.563L465.757,333.456L466.276,333.351L466.795,333.247L467.315,333.145L467.836,333.044L468.357,332.945L468.879,332.847L469.401,332.752L469.924,332.657L470.447,332.564L470.971,332.473L471.495,332.384L472.02,332.296L472.546,332.21L473.072,332.125L473.598,332.042L474.125,331.96L474.653,331.88L475.181,331.802L475.71,331.726L476.239,331.651L476.769,331.577L477.299,331.505L477.829,331.435L478.361,331.367L478.893,331.3L479.425,331.235L479.958,331.171L480.491,331.109L481.025,331.049L481.559,330.991L482.094,330.934L482.629,330.878L483.165,330.825L483.701,330.773L484.238,330.723L484.775,330.674L485.312,330.627L485.85,330.582L486.389,330.538L486.928,330.496L487.468,330.456L488.008,330.417L488.548,330.38L489.089,330.345L489.63,330.312L490.172,330.28L490.715,330.25L491.257,330.221L491.801,330.195L492.344,330.17L492.888,330.146L493.433,330.125L493.978,330.105L494.523,330.087L495.069,330.07L495.615,330.056L496.162,330.043L496.709,330.031L497.256,330.022L497.804,330.014L498.353,330.008L498.901,330.003L499.45,330.001L500,330L500.55,330.001ZM499.577,370.001L499.155,370.003L498.733,370.006L498.311,370.011L497.89,370.017L497.47,370.024L497.05,370.033L496.629,370.043L496.21,370.054L495.791,370.067L495.373,370.081L494.954,370.096L494.536,370.112L494.119,370.13L493.701,370.15L493.285,370.17L492.869,370.192L492.453,370.215L492.038,370.239L491.623,370.265L491.208,370.292L490.794,370.32L490.38,370.35L489.967,370.381L489.554,370.413L489.142,370.446L488.73,370.481L488.318,370.517L487.906,370.554L487.496,370.592L487.086,370.632L486.675,370.673L486.266,370.716L485.857,370.759L485.448,370.804L485.039,370.85L484.632,370.897L484.224,370.946L483.818,370.996L483.412,371.047L483.005,371.099L482.599,371.153L482.194,371.208L481.789,371.264L481.384,371.321L480.981,371.379L480.577,371.439L480.174,371.5L479.771,371.563L479.368,371.626L478.967,371.691L478.566,371.757L478.165,371.824L477.764,371.892L477.364,371.962L476.965,372.033L476.566,372.105L476.168,372.178L475.769,372.252L475.371,372.328L474.974,372.405L474.576,372.483L474.18,372.562L473.785,372.643L473.389,372.724L472.994,372.807L472.6,372.891L472.205,372.977L471.812,373.063L471.418,373.151L471.025,373.24L470.633,373.329L470.241,373.421L469.85,373.513L469.46,373.606L469.068,373.701L468.679,373.797L468.289,373.894L467.9,373.993L467.512,374.092L467.124,374.192L466.736,374.294L466.348,374.397L465.961,374.501L465.576,374.606L465.19,374.713L464.805,374.82L464.42,374.929L464.036,375.039L463.652,375.15L463.269,375.262L462.887,375.376L462.504,375.49L462.122,375.606L461.741,375.723L461.36,375.84L460.98,375.959L460.6,376.08L460.22,376.201L459.842,376.323L459.464,376.447L459.086,376.571L458.709,376.697L458.332,376.824L457.955,376.953L457.579,377.082L457.204,377.212L456.83,377.344L456.456,377.476L456.083,377.609L455.709,377.744L455.336,377.881L454.964,378.017L454.592,378.156L454.221,378.295L453.851,378.435L453.482,378.576L453.112,378.719L452.742,378.863L452.374,379.007L452.007,379.153L451.639,379.3L451.273,379.448L450.907,379.597L450.54,379.748L450.174,379.899L449.811,380.051L449.446,380.205L449.082,380.359L448.721,380.514L448.358,380.671L447.995,380.829L447.634,380.988L447.274,381.148L446.914,381.309L446.554,381.471L446.195,381.634L445.835,381.799L445.478,381.964L445.122,382.129L444.765,382.296L444.408,382.465L444.052,382.635L443.698,382.805L443.342,382.977L442.989,383.149L442.636,383.323L442.283,383.498L441.931,383.674L441.58,383.85L441.229,384.028L440.879,384.207L440.529,384.387L440.18,384.568L439.831,384.75L439.483,384.933L439.135,385.117L438.789,385.302L438.443,385.488L438.098,385.675L437.753,385.863L437.408,386.053L437.066,386.242L436.721,386.434L436.378,386.626L436.037,386.819L435.697,387.013L435.357,387.208L435.016,387.405L434.677,387.602L434.338,387.8L434,388L433.662,388.2L433.326,388.401L432.991,388.602L432.654,388.807L432.319,389.011L431.985,389.216L431.652,389.422L431.32,389.629L430.987,389.837L430.655,390.047L430.325,390.257L429.995,390.467L429.664,390.68L429.335,390.893L429.008,391.106L428.68,391.321L428.354,391.537L428.027,391.755L427.701,391.973L427.377,392.191L427.052,392.411L426.729,392.632L426.407,392.853L426.084,393.076L425.762,393.3L425.442,393.524L425.122,393.75L424.803,393.976L424.484,394.204L424.166,394.432L423.85,394.661L423.532,394.892L423.216,395.123L422.901,395.355L422.586,395.588L422.274,395.821L421.96,396.056L421.648,396.292L421.337,396.528L421.026,396.766L420.715,397.005L420.406,397.244L420.099,397.484L419.789,397.727L419.483,397.968L419.177,398.211L418.87,398.456L418.566,398.7L418.261,398.946L417.957,399.193L417.655,399.44L417.354,399.688L417.052,399.938L416.751,400.189L416.452,400.439L416.154,400.691L415.855,400.945L415.558,401.198L415.26,401.453L414.965,401.709L414.67,401.965L414.375,402.223L414.082,402.48L413.789,402.74L413.497,402.999L413.207,403.259L412.916,403.522L412.625,403.785L412.337,404.048L412.049,404.312L411.761,404.577L411.475,404.843L411.189,405.11L410.905,405.377L410.621,405.645L410.337,405.915L410.055,406.185L409.772,406.457L409.492,406.728L409.212,407L408.933,407.274L408.654,407.548L408.377,407.823L408.1,408.1L407.823,408.377L407.548,408.654L407.274,408.933L407,409.212L406.728,409.492L406.457,409.772L406.185,410.055L405.916,410.336L405.645,410.621L405.377,410.905L405.11,411.189L404.843,411.475L404.577,411.761L404.312,412.049L404.048,412.337L403.785,412.625L403.522,412.916L403.259,413.207L402.999,413.497L402.74,413.789L402.48,414.082L402.223,414.375L401.965,414.67L401.709,414.965L401.453,415.26L401.198,415.558L400.945,415.855L400.691,416.154L400.439,416.452L400.189,416.751L399.938,417.052L399.688,417.354L399.44,417.655L399.193,417.957L398.946,418.261L398.7,418.566L398.456,418.87L398.211,419.177L397.968,419.483L397.727,419.789L397.484,420.098L397.244,420.406L397.005,420.716L396.766,421.026L396.528,421.337L396.292,421.648L396.056,421.96L395.821,422.274L395.588,422.586L395.355,422.901L395.123,423.216L394.892,423.532L394.661,423.85L394.432,424.166L394.204,424.484L393.976,424.803L393.75,425.122L393.524,425.442L393.3,425.762L393.076,426.084L392.853,426.407L392.632,426.729L392.411,427.052L392.191,427.377L391.973,427.701L391.755,428.027L391.537,428.354L391.321,428.68L391.106,429.008L390.893,429.335L390.68,429.664L390.467,429.995L390.257,430.325L390.047,430.655L389.837,430.987L389.629,431.32L389.422,431.652L389.216,431.985L389.011,432.319L388.807,432.654L388.602,432.991L388.401,433.326L388.2,433.662L388,434L387.8,434.338L387.602,434.677L387.405,435.016L387.208,435.357L387.013,435.697L386.819,436.037L386.626,436.378L386.434,436.721L386.242,437.066L386.053,437.408L385.863,437.753L385.675,438.098L385.488,438.443L385.302,438.789L385.117,439.135L384.933,439.483L384.75,439.831L384.568,440.18L384.387,440.529L384.207,440.879L384.028,441.228L383.85,441.58L383.673,441.932L383.498,442.283L383.323,442.636L383.149,442.989L382.977,443.342L382.805,443.698L382.635,444.052L382.465,444.408L382.296,444.765L382.129,445.122L381.964,445.478L381.799,445.835L381.634,446.195L381.471,446.554L381.309,446.914L381.148,447.274L380.988,447.634L380.829,447.995L380.671,448.358L380.514,448.721L380.359,449.082L380.205,449.446L380.051,449.811L379.899,450.174L379.748,450.54L379.597,450.907L379.448,451.273L379.306,451.625L379.673,451.444L380.223,451.175L380.774,450.906L381.325,450.64L381.878,450.374L382.429,450.11L382.983,449.846L383.537,449.584L384.091,449.323L384.647,449.063L385.203,448.805L385.76,448.548L386.316,448.292L386.874,448.037L387.435,447.783L387.994,447.53L388.552,447.28L389.112,447.03L389.675,446.781L390.237,446.533L390.801,446.286L391.364,446.041L391.927,445.798L392.491,445.555L393.057,445.314L393.625,445.073L394.19,444.834L394.756,444.597L395.325,444.36L395.894,444.125L396.462,443.891L397.035,443.657L397.605,443.426L398.174,443.197L398.746,442.967L399.32,442.739L399.892,442.513L400.466,442.288L401.039,442.064L401.616,441.84L402.192,441.619L402.766,441.4L403.344,441.18L403.922,440.962L404.5,440.746L405.078,440.531L405.658,440.316L406.24,440.103L406.819,439.892L407.401,439.682L407.981,439.474L408.564,439.266L409.148,439.059L409.732,438.854L410.316,438.65L410.899,438.449L411.485,438.247L412.073,438.047L412.659,437.848L413.245,437.651L413.834,437.455L414.422,437.26L415.011,437.067L415.602,436.875L416.192,436.684L416.781,436.495L417.373,436.306L417.967,436.119L418.559,435.933L419.151,435.749L419.745,435.566L420.339,435.384L420.933,435.205L421.529,435.025L422.127,434.847L422.722,434.671L423.318,434.496L423.917,434.322L424.515,434.15L424.838,434.057L424.859,434.032L425.12,433.737L425.379,433.445L425.645,433.148L425.911,432.854L426.177,432.562L426.443,432.272L426.713,431.98L426.984,431.689L427.254,431.402L427.525,431.116L427.797,430.831L428.073,430.544L428.349,430.259L428.625,429.977L428.901,429.696L429.181,429.414L429.463,429.133L429.742,428.856L430.023,428.579L430.305,428.304L430.588,428.03L430.875,427.755L431.163,427.48L431.452,427.207L431.739,426.937L432.027,426.669L432.32,426.399L432.61,426.133L432.904,425.865L433.197,425.602L433.491,425.339L433.788,425.075L434.084,424.814L434.384,424.552L434.682,424.294L434.98,424.037L435.283,423.779L435.584,423.524L435.886,423.27L436.192,423.016L436.499,422.762L436.807,422.51L437.113,422.261L437.42,422.013L437.729,421.766L438.038,421.521L438.353,421.273L438.667,421.027L438.977,420.788L439.29,420.547L439.607,420.306L439.923,420.067L440.239,419.83L440.562,419.59L440.88,419.356L441.199,419.123L441.522,418.888L441.843,418.658L442.168,418.426L442.491,418.197L442.816,417.97L443.143,417.742L443.469,417.518L443.796,417.294L444.13,417.068L444.459,416.847L444.785,416.63L445.121,416.408L445.454,416.19L445.786,415.974L446.122,415.758L446.457,415.545L446.795,415.331L447.131,415.12L447.469,414.91L447.81,414.701L448.149,414.493L448.492,414.286L448.833,414.082L449.175,413.879L449.52,413.676L449.867,413.473L450.211,413.274L450.557,413.077L450.906,412.879L451.257,412.682L451.604,412.488L451.95,412.298L452.307,412.103L452.656,411.914L453.008,411.725L453.367,411.535L453.717,411.351L454.071,411.166L454.428,410.982L454.788,410.799L455.149,410.617L455.502,410.44L455.86,410.263L456.226,410.083L456.586,409.909L456.944,409.737L457.312,409.561L457.674,409.392L458.038,409.222L458.409,409.051L458.772,408.886L459.138,408.721L459.505,408.557L459.872,408.395L460.244,408.233L460.617,408.072L460.986,407.915L461.356,407.758L461.731,407.602L462.102,407.449L462.478,407.296L462.853,407.145L463.228,406.995L463.607,406.846L463.984,406.7L464.361,406.555L464.736,406.413L465.117,406.27L465.5,406.128L465.881,405.989L466.261,405.852L466.641,405.716L467.027,405.581L467.412,405.447L467.797,405.315L468.183,405.185L468.567,405.056L468.953,404.929L469.34,404.804L469.729,404.679L470.117,404.557L470.506,404.436L470.9,404.315L471.288,404.198L471.682,404.081L472.073,403.966L472.464,403.854L472.858,403.742L473.254,403.631L473.65,403.522L474.042,403.416L474.438,403.31L474.834,403.207L475.232,403.104L475.634,403.002L476.032,402.903L476.425,402.807L476.827,402.711L477.231,402.615L477.626,402.524L478.029,402.433L478.434,402.343L478.837,402.255L479.242,402.168L479.642,402.084L480.047,402.001L480.451,401.92L480.857,401.84L481.264,401.762L481.669,401.685L482.075,401.611L482.481,401.538L482.892,401.466L483.304,401.395L483.71,401.328L484.117,401.262L484.529,401.196L484.941,401.133L485.354,401.071L485.766,401.012L486.173,400.954L486.586,400.898L487.004,400.842L487.416,400.789L487.83,400.738L488.243,400.688L488.656,400.641L489.074,400.594L489.487,400.55L489.906,400.507L490.323,400.465L490.738,400.426L491.156,400.389L491.574,400.353L491.988,400.319L492.407,400.286L492.83,400.255L493.249,400.226L493.668,400.199L494.086,400.173L494.505,400.15L494.929,400.127L495.352,400.107L495.771,400.089L496.19,400.072L496.613,400.057L497.037,400.043L497.46,400.032L497.884,400.022L498.302,400.014L498.726,400.008L499.154,400.003L499.577,400.001L500,400L500.423,400.001L500.846,400.003L501.274,400.008L501.698,400.014L502.116,400.022L502.54,400.032L502.963,400.043L503.387,400.057L503.81,400.072L504.229,400.089L504.648,400.107L505.071,400.127L505.495,400.15L505.914,400.173L506.332,400.199L506.751,400.226L507.17,400.255L507.593,400.286L508.012,400.319L508.426,400.353L508.844,400.389L509.262,400.426L509.677,400.465L510.094,400.507L510.513,400.55L510.926,400.594L511.344,400.641L511.757,400.688L512.17,400.738L512.584,400.789L512.996,400.842L513.414,400.898L513.827,400.954L514.234,401.012L514.646,401.071L515.059,401.133L515.471,401.196L515.883,401.262L516.29,401.328L516.696,401.395L517.108,401.466L517.519,401.538L517.925,401.611L518.331,401.685L518.736,401.762L519.143,401.84L519.549,401.92L519.953,402.001L520.358,402.084L520.758,402.168L521.163,402.255L521.566,402.343L521.971,402.433L522.374,402.524L522.769,402.615L523.173,402.711L523.575,402.807L523.968,402.903L524.366,403.002L524.768,403.104L525.166,403.207L525.562,403.31L525.958,403.416L526.35,403.522L526.746,403.631L527.142,403.742L527.536,403.854L527.927,403.966L528.318,404.081L528.712,404.198L529.1,404.315L529.494,404.436L529.883,404.557L530.271,404.679L530.66,404.804L531.047,404.929L531.433,405.056L531.817,405.185L532.203,405.315L532.588,405.447L532.973,405.581L533.359,405.716L533.739,405.852L534.119,405.989L534.5,406.128L534.883,406.27L535.264,406.413L535.639,406.555L536.016,406.7L536.393,406.846L536.772,406.995L537.147,407.145L537.522,407.296L537.898,407.449L538.269,407.602L538.644,407.758L539.014,407.915L539.383,408.072L539.756,408.233L540.128,408.395L540.495,408.557L540.862,408.721L541.228,408.886L541.591,409.051L541.962,409.222L542.326,409.392L542.688,409.561L543.056,409.737L543.414,409.909L543.774,410.083L544.14,410.263L544.498,410.44L544.851,410.617L545.212,410.799L545.572,410.982L545.929,411.166L546.283,411.351L546.633,411.535L546.992,411.725L547.344,411.914L547.693,412.103L548.05,412.298L548.396,412.488L548.743,412.682L549.094,412.879L549.443,413.077L549.789,413.274L550.133,413.473L550.48,413.676L550.823,413.877L551.167,414.082L551.51,414.288L551.851,414.493L552.19,414.701L552.529,414.909L552.869,415.12L553.207,415.332L553.543,415.545L553.878,415.758L554.214,415.974L554.546,416.19L554.879,416.408L555.215,416.63L555.541,416.847L555.87,417.068L556.204,417.294L556.531,417.518L556.857,417.742L557.184,417.97L557.509,418.197L557.832,418.426L558.157,418.658L558.478,418.888L558.801,419.123L559.12,419.356L559.438,419.59L559.761,419.83L560.077,420.067L560.393,420.306L560.71,420.547L561.023,420.788L561.333,421.027L561.647,421.273L561.959,421.519L562.272,421.766L562.582,422.015L562.887,422.261L563.193,422.51L563.501,422.762L563.808,423.016L564.114,423.27L564.416,423.524L564.717,423.779L565.02,424.037L565.318,424.294L565.616,424.552L565.916,424.814L566.212,425.075L566.509,425.339L566.803,425.602L567.096,425.865L567.39,426.133L567.68,426.399L567.973,426.669L568.261,426.937L568.548,427.207L568.837,427.48L569.125,427.755L569.412,428.03L569.695,428.304L569.977,428.579L570.258,428.856L570.537,429.133L570.819,429.414L571.099,429.696L571.375,429.977L571.651,430.259L571.927,430.544L572.203,430.831L572.475,431.116L572.746,431.402L573.016,431.689L573.287,431.98L573.557,432.272L573.823,432.562L574.089,432.854L574.355,433.148L574.621,433.445L574.88,433.737L575.141,434.032L575.162,434.057L575.485,434.15L576.083,434.322L576.682,434.496L577.278,434.671L577.873,434.847L578.471,435.025L579.067,435.205L579.661,435.384L580.255,435.566L580.849,435.749L581.441,435.933L582.033,436.119L582.626,436.306L583.219,436.495L583.809,436.684L584.398,436.875L584.989,437.067L585.578,437.26L586.166,437.455L586.755,437.651L587.341,437.848L587.927,438.047L588.515,438.247L589.101,438.449L589.684,438.65L590.268,438.854L590.852,439.059L591.436,439.266L592.019,439.474L592.599,439.682L593.181,439.892L593.76,440.103L594.342,440.316L594.922,440.531L595.5,440.746L596.078,440.962L596.656,441.18L597.234,441.4L597.808,441.619L598.384,441.84L598.961,442.064L599.534,442.288L600.108,442.513L600.68,442.739L601.254,442.967L601.826,443.197L602.395,443.426L602.966,443.658L603.538,443.891L604.105,444.125L604.675,444.36L605.244,444.597L605.81,444.835L606.376,445.073L606.942,445.313L607.508,445.555L608.074,445.798L608.637,446.042L609.198,446.286L609.763,446.533L610.325,446.781L610.888,447.03L611.449,447.28L612.006,447.53L612.565,447.782L613.127,448.037L613.684,448.292L614.239,448.547L614.797,448.805L615.354,449.064L615.909,449.323L616.462,449.584L617.017,449.846L617.571,450.11L618.123,450.374L618.676,450.64L619.225,450.906L619.776,451.175L620.326,451.444L620.694,451.625L620.552,451.274L620.403,450.906L620.253,450.541L620.101,450.175L619.949,449.81L619.796,449.447L619.64,449.081L619.485,448.719L619.329,448.359L619.172,447.997L619.012,447.634L618.852,447.274L618.692,446.915L618.529,446.554L618.366,446.194L618.201,445.834L618.036,445.478L617.87,445.121L617.703,444.765L617.536,444.41L617.365,444.052L617.195,443.698L617.023,443.343L616.85,442.988L616.677,442.636L616.502,442.284L616.327,441.932L616.15,441.58L615.971,441.227L615.792,440.877L615.614,440.53L615.433,440.181L615.251,439.832L615.067,439.483L614.883,439.135L614.698,438.79L614.512,438.443L614.324,438.096L614.137,437.753L613.948,437.41L613.757,437.065L613.565,436.72L613.374,436.379L613.181,436.038L612.986,435.696L612.792,435.356L612.595,435.016L612.398,434.676L612.2,434.338L612.001,434L611.8,433.662L611.599,433.326L611.397,432.99L611.193,432.654L610.989,432.319L610.784,431.985L610.578,431.652L610.371,431.32L610.163,430.988L609.953,430.655L609.743,430.324L609.533,429.995L609.32,429.664L609.107,429.335L608.894,429.008L608.679,428.68L608.462,428.353L608.245,428.026L608.028,427.703L607.809,427.377L607.588,427.051L607.368,426.729L607.147,426.407L606.924,426.084L606.7,425.762L606.476,425.443L606.251,425.123L606.023,424.802L605.796,424.483L605.569,424.167L605.339,423.849L605.109,423.533L604.878,423.217L604.645,422.901L604.412,422.586L604.178,422.272L603.944,421.96L603.709,421.65L603.471,421.337L603.233,421.025L602.996,420.717L602.756,420.406L602.514,420.097L602.273,419.789L602.032,419.483L601.79,419.178L601.545,418.871L601.3,418.565L601.055,418.262L600.806,417.957L600.559,417.655L600.312,417.354L600.063,417.053L599.811,416.751L599.561,416.452L599.309,416.154L599.055,415.855L598.801,415.557L598.547,415.26L598.292,414.966L598.034,414.669L597.777,414.374L597.52,414.083L597.261,413.79L597,413.496L596.74,413.206L596.478,412.916L596.215,412.625L595.952,412.337L595.689,412.05L595.423,411.762L595.157,411.475L594.89,411.189L594.623,410.905L594.354,410.62L594.084,410.336L593.815,410.055L593.544,409.773L593.272,409.492L593,409.212L592.726,408.933L592.45,408.653L592.176,408.376L591.901,408.1L591.622,407.823L591.345,407.548L591.068,407.275L590.789,407.001L590.508,406.728L590.228,406.457L589.946,406.186L589.663,405.915L589.379,405.645L589.095,405.377L588.811,405.11L588.525,404.842L588.239,404.578L587.952,404.312L587.662,404.047L587.374,403.785L587.084,403.522L586.794,403.26L586.503,403L586.211,402.74L585.918,402.48L585.624,402.222L585.33,401.965L585.035,401.709L584.739,401.453L584.444,401.199L584.145,400.945L583.846,400.691L583.548,400.44L583.248,400.188L582.948,399.938L582.646,399.688L582.345,399.441L582.042,399.193L581.738,398.945L581.434,398.7L581.13,398.456L580.823,398.211L580.517,397.968L580.211,397.726L579.902,397.484L579.594,397.245L579.284,397.005L578.973,396.766L578.663,396.529L578.353,396.293L578.039,396.056L577.726,395.821L577.414,395.588L577.098,395.354L576.783,395.122L576.468,394.892L576.151,394.661L575.834,394.432L575.515,394.203L575.197,393.976L574.879,393.75L574.558,393.524L574.238,393.3L573.916,393.076L573.593,392.853L573.271,392.632L572.948,392.411L572.624,392.191L572.299,391.972L571.973,391.755L571.648,391.538L571.318,391.321L570.992,391.106L570.666,390.894L570.335,390.68L570.005,390.467L569.675,390.256L569.344,390.046L569.013,389.837L568.681,389.629L568.349,389.422L568.015,389.216L567.68,389.011L567.346,388.807L567.01,388.603L566.674,388.401L566.338,388.2L566,388L565.662,387.8L565.323,387.602L564.984,387.405L564.643,387.208L564.303,387.013L563.963,386.819L563.622,386.626L563.279,386.434L562.934,386.242L562.592,386.053L562.247,385.863L561.902,385.675L561.557,385.488L561.211,385.302L560.865,385.117L560.517,384.933L560.169,384.75L559.82,384.568L559.471,384.387L559.121,384.207L558.772,384.028L558.42,383.85L558.068,383.673L557.717,383.498L557.364,383.323L557.011,383.149L556.658,382.977L556.302,382.805L555.948,382.635L555.592,382.465L555.235,382.296L554.878,382.129L554.522,381.964L554.165,381.799L553.805,381.634L553.446,381.471L553.086,381.309L552.726,381.148L552.366,380.988L552.005,380.829L551.642,380.671L551.279,380.514L550.918,380.359L550.554,380.205L550.189,380.051L549.826,379.899L549.46,379.748L549.093,379.597L548.727,379.448L548.361,379.3L547.993,379.153L547.626,379.007L547.258,378.863L546.888,378.719L546.518,378.576L546.149,378.435L545.779,378.295L545.408,378.156L545.036,378.017L544.664,377.881L544.291,377.744L543.917,377.609L543.544,377.476L543.17,377.344L542.796,377.212L542.421,377.082L542.045,376.953L541.668,376.824L541.291,376.697L540.914,376.571L540.536,376.447L540.158,376.323L539.78,376.201L539.4,376.08L539.02,375.959L538.64,375.84L538.259,375.723L537.878,375.606L537.496,375.49L537.113,375.376L536.731,375.262L536.348,375.15L535.964,375.039L535.58,374.929L535.195,374.82L534.81,374.713L534.424,374.606L534.038,374.501L533.652,374.397L533.264,374.294L532.876,374.192L532.488,374.092L532.1,373.993L531.711,373.894L531.321,373.797L530.932,373.701L530.54,373.606L530.15,373.513L529.759,373.421L529.367,373.329L528.975,373.24L528.582,373.151L528.188,373.063L527.795,372.977L527.4,372.891L527.006,372.807L526.611,372.724L526.215,372.643L525.82,372.562L525.424,372.483L525.026,372.405L524.629,372.328L524.231,372.252L523.832,372.178L523.434,372.105L523.035,372.033L522.636,371.962L522.236,371.892L521.835,371.824L521.434,371.757L521.033,371.691L520.632,371.626L520.229,371.563L519.826,371.5L519.423,371.439L519.019,371.379L518.616,371.321L518.21,371.264L517.806,371.208L517.401,371.153L516.995,371.099L516.588,371.047L516.182,370.996L515.776,370.946L515.368,370.897L514.961,370.85L514.552,370.804L514.143,370.759L513.734,370.716L513.325,370.673L512.914,370.632L512.504,370.592L512.094,370.554L511.682,370.517L511.27,370.481L510.858,370.446L510.446,370.413L510.033,370.381L509.62,370.35L509.206,370.32L508.792,370.292L508.377,370.265L507.962,370.239L507.547,370.215L507.131,370.192L506.715,370.17L506.299,370.15L505.881,370.13L505.464,370.112L505.046,370.096L504.627,370.081L504.209,370.067L503.79,370.054L503.371,370.043L502.95,370.033L502.53,370.024L502.11,370.017L501.689,370.011L501.267,370.006L500.845,370.003L500.423,370.001L500,370L499.577,370.001Z" style="fill:rgb(75,190,237);"/>
            </g>
            <path d="M456.698,525C465.349,510.06 481.509,500 500,500C518.491,500 534.651,510.06 543.302,525C534.651,539.94 518.491,550 500,550C481.509,550 465.349,539.94 456.698,525Z" style="fill:rgb(154,219,245);"/>
            <path d="M500.323,450.001L500.646,450.004L500.968,450.009L501.29,450.016L501.611,450.026L501.932,450.037L502.252,450.05L502.571,450.065L502.89,450.082L503.209,450.102L503.527,450.123L503.845,450.146L504.162,450.171L504.478,450.198L504.794,450.227L505.109,450.258L505.424,450.291L505.738,450.326L506.052,450.363L506.364,450.402L506.677,450.443L506.989,450.485L507.3,450.53L507.61,450.577L507.92,450.625L508.229,450.675L508.538,450.727L508.846,450.782L509.153,450.837L509.46,450.895L509.766,450.955L510.071,451.017L510.376,451.08L510.68,451.145L510.983,451.212L511.286,451.281L511.588,451.352L511.889,451.425L512.19,451.499L512.49,451.575L512.789,451.653L513.087,451.733L513.385,451.815L513.682,451.898L513.978,451.983L514.273,452.07L514.568,452.159L514.862,452.249L515.155,452.342L515.447,452.436L515.739,452.531L516.029,452.629L516.319,452.728L516.608,452.829L516.897,452.932L517.184,453.036L517.471,453.142L517.757,453.25L518.042,453.359L518.326,453.47L518.609,453.583L518.892,453.698L519.174,453.814L519.454,453.932L519.734,454.051L520.013,454.172L520.292,454.295L520.569,454.42L520.845,454.546L521.121,454.673L521.395,454.803L521.669,454.934L521.942,455.066L522.214,455.2L522.484,455.336L522.754,455.473L523.023,455.612L523.292,455.753L523.559,455.895L523.825,456.038L524.09,456.184L524.354,456.33L524.617,456.479L524.88,456.628L525.141,456.78L525.401,456.933L525.66,457.087L525.919,457.243L526.176,457.4L526.432,457.559L526.687,457.72L526.941,457.882L527.194,458.045L527.446,458.21L527.697,458.376L527.947,458.544L528.196,458.713L528.444,458.884L528.691,459.056L528.936,459.23L529.181,459.405L529.424,459.581L529.667,459.759L529.908,459.939L530.148,460.119L530.387,460.302L530.625,460.485L530.862,460.67L531.097,460.856L531.332,461.044L531.565,461.233L531.797,461.424L532.028,461.615L532.258,461.808L532.486,462.003L532.714,462.199L532.94,462.396L533.165,462.595L533.389,462.794L533.612,462.996L533.833,463.198L534.053,463.402L534.272,463.607L534.49,463.813L534.706,464.021L534.922,464.23L535.136,464.44L535.348,464.652L535.56,464.864L535.77,465.078L535.979,465.294L536.187,465.51L536.393,465.728L536.598,465.947L536.802,466.167L537.004,466.388L537.206,466.611L537.405,466.835L537.604,467.06L537.801,467.286L537.997,467.514L538.192,467.742L538.385,467.972L538.576,468.203L538.767,468.435L538.956,468.668L539.144,468.903L539.33,469.138L539.515,469.375L539.698,469.613L539.881,469.852L540.061,470.092L540.241,470.333L540.419,470.576L540.595,470.819L540.77,471.064L540.944,471.309L541.116,471.556L541.287,471.804L541.456,472.053L541.624,472.303L541.79,472.554L541.955,472.806L542.118,473.059L542.28,473.313L542.441,473.568L542.6,473.824L542.757,474.081L542.913,474.34L543.067,474.599L543.22,474.859L543.372,475.12L543.521,475.383L543.67,475.646L543.816,475.91L543.962,476.175L544.105,476.441L544.247,476.708L544.388,476.977L544.527,477.246L544.664,477.516L544.8,477.786L544.934,478.058L545.066,478.331L545.197,478.605L545.327,478.879L545.454,479.155L545.58,479.431L545.705,479.708L545.828,479.987L545.949,480.266L546.068,480.546L546.186,480.826L546.302,481.108L546.417,481.391L546.53,481.674L546.641,481.958L546.75,482.243L546.858,482.529L546.964,482.816L547.068,483.103L547.171,483.392L547.272,483.681L547.371,483.971L547.469,484.261L547.564,484.553L547.658,484.845L547.751,485.138L547.841,485.432L547.93,485.727L548.017,486.022L548.102,486.318L548.185,486.615L548.267,486.913L548.347,487.211L548.425,487.51L548.501,487.81L548.575,488.111L548.648,488.412L548.719,488.714L548.788,489.017L548.855,489.32L548.92,489.624L548.983,489.929L549.045,490.234L549.105,490.54L549.163,490.847L549.218,491.154L549.273,491.462L549.325,491.771L549.375,492.08L549.423,492.39L549.47,492.7L549.515,493.011L549.557,493.323L549.598,493.636L549.637,493.948L549.674,494.262L549.709,494.576L549.742,494.891L549.773,495.206L549.802,495.522L549.829,495.838L549.854,496.155L549.877,496.473L549.898,496.791L549.918,497.11L549.935,497.429L549.95,497.748L549.963,498.068L549.974,498.389L549.984,498.71L549.991,499.032L549.996,499.354L549.999,499.677L550,500L549.999,500.323L549.996,500.646L549.991,500.968L549.984,501.29L549.974,501.611L549.963,501.932L549.95,502.252L549.935,502.571L549.918,502.89L549.898,503.209L549.877,503.527L549.854,503.845L549.829,504.162L549.802,504.478L549.773,504.794L549.742,505.109L549.709,505.424L549.674,505.738L549.637,506.052L549.598,506.364L549.557,506.677L549.515,506.989L549.47,507.3L549.423,507.61L549.375,507.92L549.325,508.229L549.273,508.538L549.218,508.846L549.163,509.153L549.105,509.46L549.045,509.766L548.983,510.071L548.92,510.376L548.855,510.68L548.788,510.983L548.719,511.286L548.648,511.588L548.575,511.889L548.501,512.19L548.425,512.49L548.347,512.789L548.267,513.087L548.185,513.385L548.102,513.682L548.017,513.978L547.93,514.273L547.841,514.568L547.751,514.862L547.658,515.155L547.564,515.447L547.469,515.739L547.371,516.029L547.272,516.319L547.171,516.608L547.068,516.897L546.964,517.184L546.858,517.471L546.75,517.757L546.641,518.042L546.53,518.326L546.417,518.609L546.302,518.892L546.186,519.174L546.068,519.454L545.949,519.734L545.828,520.013L545.705,520.292L545.58,520.569L545.454,520.845L545.327,521.121L545.197,521.395L545.066,521.669L544.934,521.942L544.8,522.214L544.664,522.484L544.527,522.754L544.388,523.023L544.247,523.292L544.105,523.559L543.962,523.825L543.816,524.09L543.67,524.354L543.521,524.617L543.372,524.88L543.22,525.141L543.067,525.401L542.913,525.66L542.757,525.919L542.6,526.176L542.441,526.432L542.28,526.687L542.118,526.941L541.955,527.194L541.79,527.446L541.624,527.697L541.456,527.947L541.287,528.196L541.116,528.444L540.944,528.691L540.77,528.936L540.595,529.181L540.419,529.424L540.241,529.667L540.061,529.908L539.881,530.148L539.698,530.387L539.515,530.625L539.33,530.862L539.144,531.097L538.956,531.332L538.767,531.565L538.576,531.797L538.385,532.028L538.192,532.258L537.997,532.486L537.801,532.714L537.604,532.94L537.405,533.165L537.206,533.389L537.004,533.612L536.802,533.833L536.598,534.053L536.393,534.272L536.187,534.49L535.979,534.706L535.77,534.922L535.56,535.136L535.348,535.348L535.136,535.56L534.922,535.77L534.706,535.979L534.49,536.187L534.272,536.393L534.053,536.598L533.833,536.802L533.612,537.004L533.389,537.206L533.165,537.405L532.94,537.604L532.714,537.801L532.486,537.997L532.258,538.192L532.028,538.385L531.797,538.576L531.565,538.767L531.332,538.956L531.097,539.144L530.862,539.33L530.625,539.515L530.387,539.698L530.148,539.881L529.908,540.061L529.667,540.241L529.424,540.419L529.181,540.595L528.936,540.77L528.691,540.944L528.444,541.116L528.196,541.287L527.947,541.456L527.697,541.624L527.446,541.79L527.194,541.955L526.941,542.118L526.687,542.28L526.432,542.441L526.176,542.6L525.919,542.757L525.66,542.913L525.401,543.067L525.141,543.22L524.88,543.372L524.617,543.521L524.354,543.67L524.09,543.816L523.825,543.962L523.559,544.105L523.292,544.247L523.023,544.388L522.754,544.527L522.484,544.664L522.214,544.8L521.942,544.934L521.669,545.066L521.395,545.197L521.121,545.327L520.845,545.454L520.569,545.58L520.292,545.705L520.013,545.828L519.734,545.949L519.454,546.068L519.174,546.186L518.892,546.302L518.609,546.417L518.326,546.53L518.042,546.641L517.757,546.75L517.471,546.858L517.184,546.964L516.897,547.068L516.608,547.171L516.319,547.272L516.029,547.371L515.739,547.469L515.447,547.564L515.155,547.658L514.862,547.751L514.568,547.841L514.273,547.93L513.978,548.017L513.682,548.102L513.385,548.185L513.087,548.267L512.789,548.347L512.49,548.425L512.19,548.501L511.889,548.575L511.588,548.648L511.286,548.719L510.983,548.788L510.68,548.855L510.376,548.92L510.071,548.983L509.766,549.045L509.46,549.105L509.153,549.163L508.846,549.218L508.538,549.273L508.229,549.325L507.92,549.375L507.61,549.423L507.3,549.47L506.989,549.515L506.677,549.557L506.364,549.598L506.052,549.637L505.738,549.674L505.424,549.709L505.109,549.742L504.794,549.773L504.478,549.802L504.162,549.829L503.845,549.854L503.527,549.877L503.209,549.898L502.89,549.918L502.571,549.935L502.252,549.95L501.932,549.963L501.611,549.974L501.29,549.984L500.968,549.991L500.646,549.996L500.323,549.999L500,550L499.677,549.999L499.354,549.996L499.032,549.991L498.71,549.984L498.389,549.974L498.068,549.963L497.748,549.95L497.429,549.935L497.11,549.918L496.791,549.898L496.473,549.877L496.155,549.854L495.838,549.829L495.522,549.802L495.206,549.773L494.891,549.742L494.576,549.709L494.262,549.674L493.948,549.637L493.636,549.598L493.323,549.557L493.011,549.515L492.7,549.47L492.39,549.423L492.08,549.375L491.771,549.325L491.462,549.273L491.154,549.218L490.847,549.163L490.54,549.105L490.234,549.045L489.929,548.983L489.624,548.92L489.32,548.855L489.017,548.788L488.714,548.719L488.412,548.648L488.111,548.575L487.81,548.501L487.51,548.425L487.211,548.347L486.913,548.267L486.615,548.185L486.318,548.102L486.022,548.017L485.727,547.93L485.432,547.841L485.138,547.751L484.845,547.658L484.553,547.564L484.261,547.469L483.971,547.371L483.681,547.272L483.392,547.171L483.103,547.068L482.816,546.964L482.529,546.858L482.243,546.75L481.958,546.641L481.674,546.53L481.391,546.417L481.108,546.302L480.826,546.186L480.546,546.068L480.266,545.949L479.987,545.828L479.708,545.705L479.431,545.58L479.155,545.454L478.879,545.327L478.605,545.197L478.331,545.066L478.058,544.934L477.786,544.8L477.516,544.664L477.246,544.527L476.977,544.388L476.708,544.247L476.441,544.105L476.175,543.962L475.91,543.816L475.646,543.67L475.383,543.521L475.12,543.372L474.859,543.22L474.599,543.067L474.34,542.913L474.081,542.757L473.824,542.6L473.568,542.441L473.313,542.28L473.059,542.118L472.806,541.955L472.554,541.79L472.303,541.624L472.053,541.456L471.804,541.287L471.556,541.116L471.309,540.944L471.064,540.77L470.819,540.595L470.576,540.419L470.333,540.241L470.092,540.061L469.852,539.881L469.613,539.698L469.375,539.515L469.138,539.33L468.903,539.144L468.668,538.956L468.435,538.767L468.203,538.576L467.972,538.385L467.742,538.192L467.514,537.997L467.286,537.801L467.06,537.604L466.835,537.405L466.611,537.206L466.388,537.004L466.167,536.802L465.947,536.598L465.728,536.393L465.51,536.187L465.294,535.979L465.078,535.77L464.864,535.56L464.652,535.348L464.44,535.136L464.23,534.922L464.021,534.706L463.813,534.49L463.607,534.272L463.402,534.053L463.198,533.833L462.996,533.612L462.794,533.389L462.595,533.165L462.396,532.94L462.199,532.714L462.003,532.486L461.808,532.258L461.615,532.028L461.424,531.797L461.233,531.565L461.044,531.332L460.856,531.097L460.67,530.862L460.485,530.625L460.302,530.387L460.119,530.148L459.939,529.908L459.759,529.667L459.581,529.424L459.405,529.181L459.23,528.936L459.056,528.691L458.884,528.444L458.713,528.196L458.544,527.947L458.376,527.697L458.21,527.446L458.045,527.194L457.882,526.941L457.72,526.687L457.559,526.432L457.4,526.176L457.243,525.919L457.087,525.66L456.933,525.401L456.78,525.141L456.628,524.88L456.479,524.617L456.33,524.354L456.184,524.09L456.038,523.825L455.895,523.559L455.753,523.292L455.612,523.023L455.473,522.754L455.336,522.484L455.2,522.214L455.066,521.942L454.934,521.669L454.803,521.395L454.673,521.121L454.546,520.845L454.42,520.569L454.295,520.292L454.172,520.013L454.051,519.734L453.932,519.454L453.814,519.174L453.698,518.892L453.583,518.609L453.47,518.326L453.359,518.042L453.25,517.757L453.142,517.471L453.036,517.184L452.932,516.897L452.829,516.608L452.728,516.319L452.629,516.029L452.531,515.739L452.436,515.447L452.342,515.155L452.249,514.862L452.159,514.568L452.07,514.273L451.983,513.978L451.898,513.682L451.815,513.385L451.733,513.087L451.653,512.789L451.575,512.49L451.499,512.19L451.425,511.889L451.352,511.588L451.281,511.286L451.212,510.983L451.145,510.68L451.08,510.376L451.017,510.071L450.955,509.766L450.895,509.46L450.837,509.153L450.782,508.846L450.727,508.538L450.675,508.229L450.625,507.92L450.577,507.61L450.53,507.3L450.485,506.989L450.443,506.677L450.402,506.364L450.363,506.052L450.326,505.738L450.291,505.424L450.258,505.109L450.227,504.794L450.198,504.478L450.171,504.162L450.146,503.845L450.123,503.527L450.102,503.209L450.082,502.89L450.065,502.571L450.05,502.252L450.037,501.932L450.026,501.611L450.016,501.29L450.009,500.968L450.004,500.646L450.001,500.323L450,500L450.001,499.677L450.004,499.354L450.009,499.032L450.016,498.71L450.026,498.389L450.037,498.068L450.05,497.748L450.065,497.429L450.082,497.11L450.102,496.791L450.123,496.473L450.146,496.155L450.171,495.838L450.198,495.522L450.227,495.206L450.258,494.891L450.291,494.576L450.326,494.262L450.363,493.948L450.402,493.636L450.443,493.323L450.485,493.011L450.53,492.7L450.577,492.39L450.625,492.08L450.675,491.771L450.727,491.462L450.782,491.154L450.837,490.847L450.895,490.54L450.955,490.234L451.017,489.929L451.08,489.624L451.145,489.32L451.212,489.017L451.281,488.714L451.352,488.412L451.425,488.111L451.499,487.81L451.575,487.51L451.653,487.211L451.733,486.913L451.815,486.615L451.898,486.318L451.983,486.022L452.07,485.727L452.159,485.432L452.249,485.138L452.342,484.845L452.436,484.553L452.531,484.261L452.629,483.971L452.728,483.681L452.829,483.392L452.932,483.103L453.036,482.816L453.142,482.529L453.25,482.243L453.359,481.958L453.47,481.674L453.583,481.391L453.698,481.108L453.814,480.826L453.932,480.546L454.051,480.266L454.172,479.987L454.295,479.708L454.42,479.431L454.546,479.155L454.673,478.879L454.803,478.605L454.934,478.331L455.066,478.058L455.2,477.786L455.336,477.516L455.473,477.246L455.612,476.977L455.753,476.708L455.895,476.441L456.038,476.175L456.184,475.91L456.33,475.646L456.479,475.383L456.628,475.12L456.78,474.859L456.933,474.599L457.087,474.34L457.243,474.081L457.4,473.824L457.559,473.568L457.72,473.313L457.882,473.059L458.045,472.806L458.21,472.554L458.376,472.303L458.544,472.053L458.713,471.804L458.884,471.556L459.056,471.309L459.23,471.064L459.405,470.819L459.581,470.576L459.759,470.333L459.939,470.092L460.119,469.852L460.302,469.613L460.485,469.375L460.67,469.138L460.856,468.903L461.044,468.668L461.233,468.435L461.424,468.203L461.615,467.972L461.808,467.742L462.003,467.514L462.199,467.286L462.396,467.06L462.595,466.835L462.794,466.611L462.996,466.388L463.198,466.167L463.402,465.947L463.607,465.728L463.813,465.51L464.021,465.294L464.23,465.078L464.44,464.864L464.652,464.652L464.864,464.44L465.078,464.23L465.294,464.021L465.51,463.813L465.728,463.607L465.947,463.402L466.167,463.198L466.388,462.996L466.611,462.794L466.835,462.595L467.06,462.396L467.286,462.199L467.514,462.003L467.742,461.808L467.972,461.615L468.203,461.424L468.435,461.233L468.668,461.044L468.903,460.856L469.138,460.67L469.375,460.485L469.613,460.302L469.852,460.119L470.092,459.939L470.333,459.759L470.576,459.581L470.819,459.405L471.064,459.23L471.309,459.056L471.556,458.884L471.804,458.713L472.053,458.544L472.303,458.376L472.554,458.21L472.806,458.045L473.059,457.882L473.313,457.72L473.568,457.559L473.824,457.4L474.081,457.243L474.34,457.087L474.599,456.933L474.859,456.78L475.12,456.628L475.383,456.479L475.646,456.33L475.91,456.184L476.175,456.038L476.441,455.895L476.708,455.753L476.977,455.612L477.246,455.473L477.516,455.336L477.786,455.2L478.058,455.066L478.331,454.934L478.605,454.803L478.879,454.673L479.155,454.546L479.431,454.42L479.708,454.295L479.987,454.172L480.266,454.051L480.546,453.932L480.826,453.814L481.108,453.698L481.391,453.583L481.674,453.47L481.958,453.359L482.243,453.25L482.529,453.142L482.816,453.036L483.103,452.932L483.392,452.829L483.681,452.728L483.971,452.629L484.261,452.531L484.553,452.436L484.845,452.342L485.138,452.249L485.432,452.159L485.727,452.07L486.022,451.983L486.318,451.898L486.615,451.815L486.913,451.733L487.211,451.653L487.51,451.575L487.81,451.499L488.111,451.425L488.412,451.352L488.714,451.281L489.017,451.212L489.32,451.145L489.624,451.08L489.929,451.017L490.234,450.955L490.54,450.895L490.847,450.837L491.154,450.782L491.462,450.727L491.771,450.675L492.08,450.625L492.39,450.577L492.7,450.53L493.011,450.485L493.323,450.443L493.636,450.402L493.948,450.363L494.262,450.326L494.576,450.291L494.891,450.258L495.206,450.227L495.522,450.198L495.838,450.171L496.155,450.146L496.473,450.123L496.791,450.102L497.11,450.082L497.429,450.065L497.748,450.05L498.068,450.037L498.389,450.026L498.71,450.016L499.032,450.009L499.354,450.004L499.677,450.001L500,450L500.323,450.001ZM499.775,465.433L499.551,465.435L499.325,465.439L499.101,465.444L498.879,465.45L498.655,465.458L498.433,465.467L498.212,465.478L497.989,465.49L497.768,465.503L497.548,465.518L497.327,465.534L497.108,465.551L496.89,465.57L496.67,465.59L496.452,465.612L496.234,465.634L496.017,465.659L495.801,465.684L495.584,465.711L495.368,465.739L495.153,465.769L494.938,465.799L494.724,465.831L494.509,465.865L494.296,465.9L494.083,465.936L493.871,465.973L493.659,466.011L493.447,466.051L493.236,466.093L493.025,466.135L492.816,466.179L492.606,466.224L492.397,466.27L492.189,466.317L491.981,466.366L491.773,466.416L491.566,466.467L491.359,466.52L491.153,466.574L490.948,466.629L490.743,466.685L490.538,466.742L490.334,466.801L490.131,466.861L489.928,466.922L489.726,466.984L489.523,467.048L489.322,467.113L489.122,467.179L488.921,467.246L488.722,467.314L488.523,467.383L488.323,467.454L488.125,467.526L487.928,467.599L487.731,467.673L487.535,467.749L487.339,467.825L487.144,467.903L486.949,467.982L486.754,468.063L486.56,468.144L486.368,468.226L486.176,468.309L485.984,468.394L485.793,468.48L485.602,468.567L485.411,468.655L485.222,468.744L485.033,468.835L484.845,468.926L484.658,469.019L484.47,469.112L484.284,469.207L484.098,469.303L483.913,469.4L483.729,469.498L483.545,469.597L483.362,469.698L483.179,469.799L482.997,469.902L482.815,470.006L482.635,470.11L482.456,470.215L482.276,470.322L482.098,470.43L481.919,470.539L481.742,470.649L481.566,470.76L481.39,470.872L481.215,470.985L481.041,471.099L480.867,471.214L480.693,471.331L480.522,471.447L480.35,471.565L480.179,471.685L480.009,471.805L479.84,471.926L479.671,472.049L479.503,472.172L479.336,472.296L479.169,472.422L479.004,472.548L478.84,472.674L478.675,472.803L478.512,472.932L478.349,473.062L478.188,473.193L478.027,473.325L477.866,473.458L477.707,473.592L477.549,473.727L477.391,473.863L477.234,474L477.078,474.137L476.923,474.276L476.769,474.415L476.615,474.556L476.462,474.697L476.31,474.839L476.16,474.982L476.009,475.126L475.86,475.272L475.712,475.417L475.564,475.564L475.417,475.712L475.272,475.86L475.126,476.009L474.982,476.16L474.839,476.31L474.697,476.462L474.556,476.615L474.415,476.769L474.276,476.923L474.137,477.078L474,477.234L473.863,477.391L473.727,477.549L473.592,477.707L473.458,477.866L473.325,478.027L473.193,478.188L473.062,478.349L472.932,478.512L472.803,478.675L472.674,478.84L472.548,479.004L472.422,479.169L472.296,479.336L472.172,479.503L472.049,479.671L471.926,479.84L471.805,480.009L471.685,480.179L471.565,480.35L471.447,480.522L471.331,480.693L471.214,480.867L471.099,481.041L470.985,481.215L470.872,481.39L470.76,481.566L470.649,481.742L470.539,481.919L470.43,482.098L470.322,482.276L470.215,482.456L470.11,482.635L470.006,482.815L469.902,482.997L469.799,483.179L469.698,483.362L469.597,483.545L469.498,483.729L469.4,483.913L469.303,484.098L469.207,484.284L469.112,484.47L469.019,484.658L468.926,484.845L468.835,485.033L468.744,485.222L468.655,485.411L468.567,485.602L468.48,485.793L468.394,485.984L468.309,486.176L468.226,486.368L468.144,486.56L468.063,486.754L467.982,486.949L467.903,487.144L467.825,487.339L467.749,487.535L467.673,487.731L467.599,487.928L467.526,488.125L467.454,488.323L467.383,488.523L467.314,488.722L467.246,488.921L467.179,489.122L467.113,489.322L467.048,489.523L466.984,489.726L466.922,489.928L466.861,490.131L466.801,490.334L466.742,490.538L466.685,490.743L466.629,490.948L466.574,491.153L466.52,491.359L466.467,491.566L466.416,491.773L466.366,491.981L466.317,492.189L466.27,492.397L466.224,492.606L466.179,492.816L466.135,493.025L466.093,493.236L466.051,493.447L466.011,493.659L465.973,493.871L465.936,494.083L465.9,494.296L465.865,494.509L465.831,494.724L465.799,494.938L465.769,495.153L465.739,495.368L465.711,495.584L465.684,495.801L465.659,496.017L465.634,496.234L465.612,496.452L465.59,496.67L465.57,496.89L465.551,497.108L465.534,497.327L465.518,497.548L465.503,497.768L465.49,497.989L465.478,498.212L465.467,498.433L465.458,498.655L465.45,498.879L465.444,499.101L465.439,499.325L465.435,499.551L465.433,499.775L465.432,500L465.433,500.225L465.435,500.449L465.439,500.675L465.444,500.899L465.45,501.121L465.458,501.345L465.467,501.567L465.478,501.788L465.49,502.011L465.503,502.232L465.518,502.452L465.534,502.673L465.551,502.892L465.57,503.11L465.59,503.33L465.612,503.548L465.634,503.766L465.659,503.983L465.684,504.199L465.711,504.416L465.739,504.632L465.769,504.847L465.799,505.062L465.831,505.276L465.865,505.491L465.9,505.704L465.936,505.917L465.973,506.129L466.011,506.341L466.051,506.553L466.093,506.764L466.135,506.975L466.179,507.184L466.224,507.394L466.27,507.603L466.317,507.811L466.366,508.019L466.416,508.227L466.467,508.434L466.52,508.641L466.574,508.847L466.629,509.052L466.685,509.257L466.742,509.462L466.801,509.666L466.861,509.869L466.922,510.072L466.984,510.274L467.048,510.477L467.113,510.678L467.179,510.878L467.246,511.079L467.314,511.278L467.383,511.477L467.454,511.677L467.526,511.875L467.599,512.072L467.673,512.269L467.749,512.465L467.825,512.661L467.903,512.856L467.982,513.051L468.063,513.246L468.144,513.44L468.226,513.632L468.309,513.824L468.394,514.016L468.48,514.207L468.567,514.398L468.655,514.589L468.744,514.778L468.835,514.967L468.926,515.155L469.019,515.342L469.112,515.53L469.207,515.716L469.303,515.902L469.4,516.087L469.498,516.271L469.597,516.455L469.698,516.638L469.799,516.821L469.902,517.003L470.006,517.185L470.11,517.365L470.215,517.544L470.322,517.724L470.43,517.902L470.539,518.081L470.649,518.258L470.76,518.434L470.872,518.61L470.985,518.785L471.099,518.959L471.214,519.133L471.331,519.307L471.447,519.478L471.565,519.65L471.685,519.821L471.805,519.991L471.926,520.16L472.049,520.329L472.172,520.497L472.296,520.664L472.422,520.831L472.548,520.996L472.674,521.16L472.803,521.325L472.932,521.488L473.062,521.651L473.193,521.812L473.325,521.973L473.458,522.134L473.592,522.293L473.727,522.451L473.863,522.609L474,522.766L474.137,522.922L474.276,523.077L474.415,523.231L474.556,523.385L474.697,523.538L474.839,523.69L474.982,523.84L475.126,523.991L475.272,524.14L475.417,524.288L475.564,524.436L475.712,524.583L475.86,524.728L476.009,524.874L476.16,525.018L476.31,525.161L476.462,525.303L476.615,525.444L476.769,525.585L476.923,525.724L477.078,525.863L477.234,526L477.391,526.137L477.549,526.273L477.707,526.408L477.866,526.542L478.027,526.675L478.188,526.807L478.349,526.938L478.512,527.068L478.675,527.197L478.84,527.326L479.004,527.452L479.169,527.578L479.336,527.704L479.503,527.828L479.671,527.951L479.84,528.074L480.009,528.195L480.179,528.315L480.35,528.435L480.522,528.553L480.693,528.669L480.867,528.786L481.041,528.901L481.215,529.015L481.39,529.128L481.566,529.24L481.742,529.351L481.919,529.461L482.098,529.57L482.276,529.678L482.456,529.785L482.635,529.89L482.815,529.994L482.997,530.098L483.179,530.201L483.362,530.302L483.545,530.403L483.729,530.502L483.913,530.6L484.098,530.697L484.284,530.793L484.47,530.888L484.658,530.981L484.845,531.074L485.033,531.165L485.222,531.256L485.411,531.345L485.602,531.433L485.793,531.52L485.984,531.606L486.176,531.691L486.368,531.774L486.56,531.856L486.754,531.937L486.949,532.018L487.144,532.097L487.339,532.175L487.535,532.251L487.731,532.327L487.928,532.401L488.125,532.474L488.323,532.546L488.523,532.617L488.722,532.686L488.921,532.754L489.122,532.821L489.322,532.887L489.523,532.952L489.726,533.016L489.928,533.078L490.131,533.139L490.334,533.199L490.538,533.258L490.743,533.315L490.948,533.371L491.153,533.426L491.359,533.48L491.566,533.533L491.773,533.584L491.981,533.634L492.189,533.683L492.397,533.73L492.606,533.776L492.816,533.821L493.025,533.865L493.236,533.907L493.447,533.949L493.659,533.989L493.871,534.027L494.083,534.064L494.296,534.1L494.509,534.135L494.724,534.169L494.938,534.201L495.153,534.231L495.368,534.261L495.584,534.289L495.801,534.316L496.017,534.341L496.234,534.366L496.452,534.388L496.67,534.41L496.89,534.43L497.108,534.449L497.327,534.466L497.548,534.482L497.768,534.497L497.989,534.51L498.212,534.522L498.433,534.533L498.655,534.542L498.879,534.55L499.101,534.556L499.325,534.561L499.551,534.565L499.775,534.567L500,534.568L500.225,534.567L500.449,534.565L500.675,534.561L500.899,534.556L501.121,534.55L501.345,534.542L501.567,534.533L501.788,534.522L502.011,534.51L502.232,534.497L502.452,534.482L502.673,534.466L502.892,534.449L503.11,534.43L503.33,534.41L503.548,534.388L503.766,534.366L503.983,534.341L504.199,534.316L504.416,534.289L504.632,534.261L504.847,534.231L505.062,534.201L505.276,534.169L505.491,534.135L505.704,534.1L505.917,534.064L506.129,534.027L506.341,533.989L506.553,533.949L506.764,533.907L506.975,533.865L507.184,533.821L507.394,533.776L507.603,533.73L507.811,533.683L508.019,533.634L508.227,533.584L508.434,533.533L508.641,533.48L508.847,533.426L509.052,533.371L509.257,533.315L509.462,533.258L509.666,533.199L509.869,533.139L510.072,533.078L510.274,533.016L510.477,532.952L510.678,532.887L510.878,532.821L511.079,532.754L511.278,532.686L511.477,532.617L511.677,532.546L511.875,532.474L512.072,532.401L512.269,532.327L512.465,532.251L512.661,532.175L512.856,532.097L513.051,532.018L513.246,531.937L513.44,531.856L513.632,531.774L513.824,531.691L514.016,531.606L514.207,531.52L514.398,531.433L514.589,531.345L514.778,531.256L514.967,531.165L515.155,531.074L515.342,530.981L515.53,530.888L515.716,530.793L515.902,530.697L516.087,530.6L516.271,530.502L516.455,530.403L516.638,530.302L516.821,530.201L517.003,530.098L517.185,529.994L517.365,529.89L517.544,529.785L517.724,529.678L517.902,529.57L518.081,529.461L518.258,529.351L518.434,529.24L518.61,529.128L518.785,529.015L518.959,528.901L519.133,528.786L519.307,528.669L519.478,528.553L519.65,528.435L519.821,528.315L519.991,528.195L520.16,528.074L520.329,527.951L520.497,527.828L520.664,527.704L520.831,527.578L520.996,527.452L521.16,527.326L521.325,527.197L521.488,527.068L521.651,526.938L521.812,526.807L521.973,526.675L522.134,526.542L522.293,526.408L522.451,526.273L522.609,526.137L522.766,526L522.922,525.863L523.077,525.724L523.231,525.585L523.385,525.444L523.538,525.303L523.69,525.161L523.84,525.018L523.991,524.874L524.14,524.728L524.288,524.583L524.436,524.436L524.583,524.288L524.728,524.14L524.874,523.991L525.018,523.84L525.161,523.69L525.303,523.538L525.444,523.385L525.585,523.231L525.724,523.077L525.863,522.922L526,522.766L526.137,522.609L526.273,522.451L526.408,522.293L526.542,522.134L526.675,521.973L526.807,521.812L526.938,521.651L527.068,521.488L527.197,521.325L527.326,521.16L527.452,520.996L527.578,520.831L527.704,520.664L527.828,520.497L527.951,520.329L528.074,520.16L528.195,519.991L528.315,519.821L528.435,519.65L528.553,519.478L528.669,519.307L528.786,519.133L528.901,518.959L529.015,518.785L529.128,518.61L529.24,518.434L529.351,518.258L529.461,518.081L529.57,517.902L529.678,517.724L529.785,517.544L529.89,517.365L529.994,517.185L530.098,517.003L530.201,516.821L530.302,516.638L530.403,516.455L530.502,516.271L530.6,516.087L530.697,515.902L530.793,515.716L530.888,515.53L530.981,515.342L531.074,515.155L531.165,514.967L531.256,514.778L531.345,514.589L531.433,514.398L531.52,514.207L531.606,514.016L531.691,513.824L531.774,513.632L531.856,513.44L531.937,513.246L532.018,513.051L532.097,512.856L532.175,512.661L532.251,512.465L532.327,512.269L532.401,512.072L532.474,511.875L532.546,511.677L532.617,511.477L532.686,511.278L532.754,511.079L532.821,510.878L532.887,510.678L532.952,510.477L533.016,510.274L533.078,510.072L533.139,509.869L533.199,509.666L533.258,509.462L533.315,509.257L533.371,509.052L533.426,508.847L533.48,508.641L533.533,508.434L533.584,508.227L533.634,508.019L533.683,507.811L533.73,507.603L533.776,507.394L533.821,507.184L533.865,506.975L533.907,506.764L533.949,506.553L533.989,506.341L534.027,506.129L534.064,505.917L534.1,505.704L534.135,505.491L534.169,505.276L534.201,505.062L534.231,504.847L534.261,504.632L534.289,504.416L534.316,504.199L534.341,503.983L534.366,503.766L534.388,503.548L534.41,503.33L534.43,503.11L534.449,502.892L534.466,502.673L534.482,502.452L534.497,502.232L534.51,502.011L534.522,501.788L534.533,501.567L534.542,501.345L534.55,501.121L534.556,500.899L534.561,500.675L534.565,500.449L534.567,500.225L534.568,500L534.567,499.775L534.565,499.551L534.561,499.325L534.556,499.101L534.55,498.879L534.542,498.655L534.533,498.433L534.522,498.212L534.51,497.989L534.497,497.768L534.482,497.548L534.466,497.327L534.449,497.108L534.43,496.89L534.41,496.67L534.388,496.452L534.366,496.234L534.341,496.017L534.316,495.801L534.289,495.584L534.261,495.368L534.231,495.153L534.201,494.938L534.169,494.724L534.135,494.509L534.1,494.296L534.064,494.083L534.027,493.871L533.989,493.659L533.949,493.447L533.907,493.236L533.865,493.025L533.821,492.816L533.776,492.606L533.73,492.397L533.683,492.189L533.634,491.981L533.584,491.773L533.533,491.566L533.48,491.359L533.426,491.153L533.371,490.948L533.315,490.743L533.258,490.538L533.199,490.334L533.139,490.131L533.078,489.928L533.016,489.726L532.952,489.523L532.887,489.322L532.821,489.122L532.754,488.921L532.686,488.722L532.617,488.523L532.546,488.323L532.474,488.125L532.401,487.928L532.327,487.731L532.251,487.535L532.175,487.339L532.097,487.144L532.018,486.949L531.937,486.754L531.856,486.56L531.774,486.368L531.691,486.176L531.606,485.984L531.52,485.793L531.433,485.602L531.345,485.411L531.256,485.222L531.165,485.033L531.074,484.845L530.981,484.658L530.888,484.47L530.793,484.284L530.697,484.098L530.6,483.913L530.502,483.729L530.403,483.545L530.302,483.362L530.201,483.179L530.098,482.997L529.994,482.815L529.89,482.635L529.785,482.456L529.678,482.276L529.57,482.098L529.461,481.919L529.351,481.742L529.24,481.566L529.128,481.39L529.015,481.215L528.901,481.041L528.786,480.867L528.669,480.693L528.553,480.522L528.435,480.35L528.315,480.179L528.195,480.009L528.074,479.84L527.951,479.671L527.828,479.503L527.704,479.336L527.578,479.169L527.452,479.004L527.326,478.84L527.197,478.675L527.068,478.512L526.938,478.349L526.807,478.188L526.675,478.027L526.542,477.866L526.408,477.707L526.273,477.549L526.137,477.391L526,477.234L525.863,477.078L525.724,476.923L525.585,476.769L525.444,476.615L525.303,476.462L525.161,476.31L525.018,476.16L524.874,476.009L524.728,475.86L524.583,475.712L524.436,475.564L524.288,475.417L524.14,475.272L523.991,475.126L523.84,474.982L523.69,474.839L523.538,474.697L523.385,474.556L523.231,474.415L523.077,474.276L522.922,474.137L522.766,474L522.609,473.863L522.451,473.727L522.293,473.592L522.134,473.458L521.973,473.325L521.812,473.193L521.651,473.062L521.488,472.932L521.325,472.803L521.16,472.674L520.996,472.548L520.831,472.422L520.664,472.296L520.497,472.172L520.329,472.049L520.16,471.926L519.991,471.805L519.821,471.685L519.65,471.565L519.478,471.447L519.307,471.331L519.133,471.214L518.959,471.099L518.785,470.985L518.61,470.872L518.434,470.76L518.258,470.649L518.081,470.539L517.902,470.43L517.724,470.322L517.544,470.215L517.365,470.11L517.185,470.006L517.003,469.902L516.821,469.799L516.638,469.698L516.455,469.597L516.271,469.498L516.087,469.4L515.902,469.303L515.716,469.207L515.53,469.112L515.342,469.019L515.155,468.926L514.967,468.835L514.778,468.744L514.589,468.655L514.398,468.567L514.207,468.48L514.016,468.394L513.824,468.309L513.632,468.226L513.44,468.144L513.246,468.063L513.051,467.982L512.856,467.903L512.661,467.825L512.465,467.749L512.269,467.673L512.072,467.599L511.875,467.526L511.677,467.454L511.477,467.383L511.278,467.314L511.079,467.246L510.878,467.179L510.678,467.113L510.477,467.048L510.274,466.984L510.072,466.922L509.869,466.861L509.666,466.801L509.462,466.742L509.257,466.685L509.052,466.629L508.847,466.574L508.641,466.52L508.434,466.467L508.227,466.416L508.019,466.366L507.811,466.317L507.603,466.27L507.394,466.224L507.184,466.179L506.975,466.135L506.764,466.093L506.553,466.051L506.341,466.011L506.129,465.973L505.917,465.936L505.704,465.9L505.491,465.865L505.276,465.831L505.062,465.799L504.847,465.769L504.632,465.739L504.416,465.711L504.199,465.684L503.983,465.659L503.766,465.634L503.548,465.612L503.33,465.59L503.11,465.57L502.892,465.551L502.673,465.534L502.452,465.518L502.232,465.503L502.011,465.49L501.788,465.478L501.567,465.467L501.345,465.458L501.121,465.45L500.899,465.444L500.675,465.439L500.449,465.435L500.225,465.433L500,465.432L499.775,465.433Z" style="fill:rgb(75,190,237);"/>
        </g>
    </g>
</svg>
